<svg xmlns="http://www.w3.org/2000/svg" width="340" height="140" fill="none" viewBox="0 0 340 140">
  <defs>
    <radialGradient id="a" cx="0" cy="0" r="1" gradientTransform="matrix(37.4976 -34.52334 45.5776 49.5042 70.147 79.26)" gradientUnits="userSpaceOnUse">
      <stop offset=".771" stop-color="#001AFF"/>
      <stop offset="1" stop-color="#8ACEFF"/>
    </radialGradient>
    <radialGradient id="b" cx="0" cy="0" r="1" gradientTransform="rotate(-30.543 151.118 -123.252) scale(28.1421 37.1531)" gradientUnits="userSpaceOnUse">
      <stop offset=".719" stop-color="#FA00FF" stop-opacity="0"/>
      <stop offset="1" stop-color="#FF00D6" stop-opacity=".44"/>
    </radialGradient>
    <radialGradient id="c" cx="0" cy="0" r="1" gradientTransform="rotate(49.385 -39.219 79.95) scale(80.3237)" gradientUnits="userSpaceOnUse">
      <stop offset=".026" stop-color="#8DFDFD"/>
      <stop offset=".271" stop-color="#87FBFB"/>
      <stop offset=".484" stop-color="#74D6F4"/>
      <stop offset=".932" stop-color="#0038FF"/>
    </radialGradient>
    <radialGradient id="d" cx="0" cy="0" r="1" gradientTransform="rotate(137.237 16.881 43.909) scale(55.0405)" gradientUnits="userSpaceOnUse">
      <stop offset=".267" stop-color="#0500FF" stop-opacity="0"/>
      <stop offset="1" stop-color="#0500FF" stop-opacity=".15"/>
    </radialGradient>
    <radialGradient id="e" cx="0" cy="0" r="1" gradientTransform="rotate(75.198 -10.255 62.138) scale(85.7974)" gradientUnits="userSpaceOnUse">
      <stop offset=".42" stop-color="#FF00E5" stop-opacity="0"/>
      <stop offset=".774" stop-color="#FF00F5" stop-opacity=".64"/>
      <stop offset=".899" stop-color="#BE46FF" stop-opacity=".87"/>
    </radialGradient>
    <radialGradient id="g" cx="0" cy="0" r="1" gradientTransform="rotate(83.148 -10.454 64.387) scale(38.45 58.1162)" gradientUnits="userSpaceOnUse">
      <stop stop-color="#00B2FF"/>
      <stop offset=".571" stop-color="#74C5FF"/>
      <stop offset=".979" stop-color="#9FD7FF"/>
    </radialGradient>
    <linearGradient id="f" x1="25.001" x2="143.626" y1="66.095" y2="67.72" gradientUnits="userSpaceOnUse">
      <stop offset=".432" stop-color="#FE62EE" stop-opacity="0"/>
      <stop offset=".818" stop-color="#FD3AF5" stop-opacity=".47"/>
    </linearGradient>
    <linearGradient id="h" x1="58.933" x2="66.139" y1="47.115" y2="90.984" gradientUnits="userSpaceOnUse">
      <stop offset=".042" stop-color="#0038FF"/>
      <stop offset=".724" stop-color="#48BFF1" stop-opacity=".59"/>
      <stop offset="1" stop-color="#74C5FF" stop-opacity="0"/>
    </linearGradient>
  </defs>
  <path fill="url(#a)" d="M76.503 88.507c21.029 0 38.076-12.913 38.076-28.842 0-15.928-17.047-28.841-38.076-28.841-21.03 0-38.077 12.912-38.077 28.841s17.048 28.842 38.077 28.842z"/>
  <path fill="url(#b)" d="M76.503 88.507c21.029 0 38.076-12.913 38.076-28.842 0-15.928-17.047-28.841-38.076-28.841-21.03 0-38.077 12.912-38.077 28.841s17.048 28.842 38.077 28.842z"/>
  <path fill="url(#c)" d="M116 66.627a51.999 51.999 0 11-52-52c13.497 6.11 27.617 28.842 33.53 35.945 5.913 7.104 21.218 16.055 13.717-2.722C114.445 52.925 116 61.346 116 66.627z"/>
  <path fill="url(#d)" d="M116 66.627a51.999 51.999 0 11-52-52c13.497 6.11 27.617 28.842 33.53 35.945 5.913 7.104 21.218 16.055 13.717-2.722C114.445 52.925 116 61.346 116 66.627z"/>
  <path fill="url(#e)" d="M116 66.627a51.999 51.999 0 11-52-52c13.497 6.11 27.617 28.842 33.53 35.945 5.913 7.104 21.218 16.055 13.717-2.722C114.445 52.925 116 61.346 116 66.627z"/>
  <path fill="url(#f)" d="M116 66.627a51.999 51.999 0 11-52-52c13.497 6.11 27.617 28.842 33.53 35.945 5.913 7.104 21.218 16.055 13.717-2.722C114.445 52.925 116 61.346 116 66.627z"/>
  <path fill="url(#g)" d="M69.712 105.67c19.684-4.202 33.387-18.166 30.606-31.189-2.78-13.023-20.991-20.173-40.675-15.97C39.96 62.713 26.257 76.677 29.038 89.7c2.78 13.023 20.99 20.173 40.674 15.97z"/>
  <path fill="url(#h)" d="M69.712 105.67c19.684-4.202 33.387-18.166 30.606-31.189-2.78-13.023-20.991-20.173-40.675-15.97C39.96 62.713 26.257 76.677 29.038 89.7c2.78 13.023 20.99 20.173 40.674 15.97z"/>
  <path fill="#D6F8F8" fill-opacity=".19" fill-rule="evenodd" d="M91.614 91.592c5.156-5.255 7.357-11.171 6.203-16.577-1.154-5.406-5.579-9.907-12.432-12.598-6.832-2.682-15.787-3.417-25.208-1.405-9.42 2.011-17.295 6.339-22.435 11.577-5.157 5.255-7.358 11.17-6.203 16.577 1.154 5.406 5.579 9.907 12.432 12.598 6.831 2.682 15.786 3.417 25.207 1.405 9.42-2.011 17.296-6.339 22.436-11.577zM69.712 105.67c19.684-4.202 33.386-18.166 30.606-31.189-2.78-13.023-20.991-20.173-40.674-15.97C39.96 62.713 26.257 76.677 29.038 89.7c2.78 13.022 20.99 20.172 40.674 15.969z" clip-rule="evenodd"/>
  <g>
    <path fill="#000" d="M145.631 63.685h34.109v8.959h-24.255v9.535h21.375v8.96h-21.375v17.342h-9.854V63.685z"/>
    <path fill="#000" d="M184.779 61.765h9.728v46.716h-9.728V61.765z"/>
    <path fill="#000" d="M200.649 91.522v-.128c0-9.79 6.976-17.854 16.959-17.854 11.455 0 16.704 8.895 16.704 18.623 0 .768-.065 1.664-.128 2.56h-23.871c.96 4.415 4.032 6.719 8.383 6.719 3.264 0 5.632-1.024 8.32-3.52l5.567 4.928c-3.199 3.967-7.807 6.4-14.015 6.4-10.302 0-17.919-7.232-17.919-17.728zm24.191-2.879c-.576-4.352-3.136-7.295-7.232-7.295-4.031 0-6.655 2.879-7.423 7.295h14.655z"/>
    <path fill="#000" d="M237.475 91.522v-.128c0-9.79 6.975-17.854 16.959-17.854 11.455 0 16.703 8.895 16.703 18.623 0 .768-.065 1.664-.128 2.56h-23.87c.959 4.415 4.031 6.719 8.382 6.719 3.264 0 5.632-1.024 8.32-3.52l5.567 4.928c-3.199 3.967-7.806 6.4-14.014 6.4-10.303 0-17.919-7.232-17.919-17.728zm24.19-2.879c-.576-4.352-3.136-7.295-7.231-7.295-4.032 0-6.656 2.879-7.424 7.295h14.655z"/>
    <path fill="#000" d="M277.263 98.754V82.499h-4.096v-8.32h4.096v-8.766h9.727v8.767h8.064v8.32h-8.064v14.654c0 2.24.96 3.328 3.136 3.328a9.892 9.892 0 004.8-1.216v7.808a14.351 14.351 0 01-7.68 1.984c-5.951 0-9.983-2.369-9.983-10.304z"/>
  </g>
  <g>
    <path fill="#000" d="M136.715 50.886l2.051-1.763c1.548 2.338 3.131 3.599 5.759 3.599 2.843 0 4.93-2.052 4.93-6.047v-16.88h2.88V46.64a9.105 9.105 0 01-2.304 6.622 7.722 7.722 0 01-5.543 2.087 8.628 8.628 0 01-7.773-4.463z"/>
    <path fill="#000" d="M157.525 45.74v-.073c0-5.362 3.78-9.681 8.926-9.681 5.507 0 8.674 4.39 8.674 9.825.007.3-.006.601-.037.9h-14.755c.395 4.031 3.238 6.298 6.55 6.298a7.7 7.7 0 005.866-2.627l1.728 1.548a9.612 9.612 0 01-7.666 3.49c-5.111 0-9.286-3.922-9.286-9.68zm14.793-1.081c-.288-3.383-2.232-6.333-5.939-6.333-3.239 0-5.686 2.699-6.046 6.333h11.985z"/>
    <path fill="#000" d="M180.327 50.057V38.83h-2.591v-2.448h2.591v-5.615h2.771v5.615h5.903v2.448h-5.903v10.868c0 2.267 1.26 3.095 3.132 3.095a5.834 5.834 0 002.699-.647v2.375a6.972 6.972 0 01-3.347.792c-2.987 0-5.255-1.476-5.255-5.256z"/>
    <path fill="#000" d="M193.608 29.796h10.725a9.254 9.254 0 016.586 2.231 5.591 5.591 0 011.62 4.03v.073a6.079 6.079 0 01-3.995 5.83c2.987.9 5.399 2.627 5.399 6.083v.072c0 4.319-3.636 6.873-9.142 6.873h-11.193V29.796zm16.051 6.657c0-2.483-1.979-4.103-5.578-4.103h-7.666v8.675h7.45c3.419 0 5.794-1.548 5.794-4.499v-.073zm-5.29 7.091h-7.954v8.89h8.458c3.815 0 6.19-1.692 6.19-4.499v-.073c0-2.734-2.303-4.318-6.694-4.318z"/>
    <path fill="#000" d="M219.257 36.382h2.772v4.859c1.367-3.096 4.067-5.327 7.593-5.184v2.987h-.216c-4.066 0-7.377 2.916-7.377 8.53v7.414h-2.772V36.382z"/>
    <path fill="#000" d="M231.89 49.59v-.072c0-3.923 3.239-6.01 7.954-6.01a19.764 19.764 0 015.722.791v-.648c0-3.346-2.051-5.074-5.542-5.074-1.963.022-3.895.49-5.65 1.367l-.828-2.267a15.355 15.355 0 016.766-1.547 8.168 8.168 0 016.01 2.051 7.345 7.345 0 011.908 5.435v11.372h-2.664v-2.807a8.148 8.148 0 01-6.73 3.203c-3.455 0-6.946-1.979-6.946-5.794zm13.712-1.439v-1.8a19.353 19.353 0 00-5.47-.792c-3.491 0-5.435 1.511-5.435 3.851v.072c0 2.34 2.16 3.707 4.679 3.707 3.419 0 6.226-2.087 6.226-5.038z"/>
    <path fill="#000" d="M253.878 29.255h3.168v3.06h-3.168v-3.06zm.18 7.127h2.771v18.606h-2.771V36.382z"/>
    <path fill="#000" d="M262.87 36.382h2.772v3.24a7.045 7.045 0 016.37-3.636c4.499 0 7.126 3.023 7.126 7.45v11.552h-2.771V44.12c0-3.456-1.872-5.615-5.147-5.615a5.47 5.47 0 00-5.26 3.602 5.475 5.475 0 00-.318 2.23v10.651h-2.772V36.382z"/>
    <path fill="#000" d="M283.207 52.614l1.404-1.98a10.873 10.873 0 006.442 2.375c2.231 0 3.851-1.15 3.851-2.951v-.072c0-1.871-2.196-2.591-4.643-3.275-2.915-.828-6.154-1.836-6.154-5.255v-.072c0-3.203 2.663-5.326 6.334-5.326 2.38.044 4.699.755 6.694 2.052l-1.259 2.087a10.52 10.52 0 00-5.507-1.8c-2.195 0-3.599 1.151-3.599 2.7v.071c0 1.765 2.303 2.448 4.786 3.203 2.88.865 5.975 1.98 5.975 5.327v.072c0 3.527-2.915 5.58-6.622 5.58a12.796 12.796 0 01-7.702-2.736z"/>
  </g>
</svg>
