<svg xmlns="http://www.w3.org/2000/svg" width="646" height="140" fill="none" viewBox="0 0 646 140">
    <path fill="#000" d="M110 30H30v80h80V30z"/>
    <path fill="#fff"
          d="M39.238 39.885h12.336c7.203 0 11.559 4.27 11.559 10.438v.086c0 6.987-5.434 10.611-12.206 10.611H45.88v9.057h-6.642V39.886zM51.143 55.11c3.32 0 5.262-1.984 5.262-4.573v-.086c0-2.976-2.07-4.571-5.392-4.571H45.88v9.23h5.263zM59.42 65.98l4.184-4.658c1.725 1.897 3.407 3.019 5.52 3.019 2.502 0 4.055-1.51 4.055-5.003V39.885h6.815V59.64c0 3.58-1.035 6.254-2.847 8.065a10.787 10.787 0 01-7.85 2.803 12.344 12.344 0 01-9.877-4.528zM40 95h30v5H40v-5z"/>
    <path fill="#000"
          d="M306.869 127.756v-13.597a20.76 20.76 0 003.656.343c3.657 0 6.171-1.942 6.171-7.084V48.575h17.367v60.214c0 13.483-6.855 19.652-19.652 19.652a36.09 36.09 0 01-7.542-.685zm9.37-101.347h18.281v15.425h-18.281V26.41zm-175.854 3.428h32.677c19.081 0 30.622 11.311 30.622 27.65v.229c0 18.51-14.397 28.107-32.335 28.107H157.98v23.994h-17.595v-79.98zM171.92 70.17c8.797 0 13.939-5.256 13.939-12.112v-.228c0-7.884-5.484-12.112-14.282-12.112H157.98V70.17h13.94zm35.996-21.595h17.367v12.34c3.543-8.454 9.255-13.939 19.539-13.483V65.6h-.914c-11.541 0-18.625 6.97-18.625 21.595v22.622h-17.367V48.575zm36.109 30.736v.228c0 17.596 14.054 31.65 33.021 31.65 19.081 0 33.249-14.283 33.249-31.878v-.23c0-17.594-14.054-31.649-33.02-31.649-19.082 0-33.25 14.283-33.25 31.879zm49.131 0v.228c0 9.026-5.941 16.682-15.881 16.682-9.598 0-16.111-7.884-16.111-16.91v-.23c0-9.025 5.941-16.68 15.882-16.68 9.597 0 16.11 7.883 16.11 16.91zm47.305 0v.228c0 18.738 13.596 31.65 31.992 31.65 11.083 0 19.31-4.343 25.022-11.426l-9.94-8.798c-4.799 4.457-9.026 6.285-14.853 6.285-7.77 0-13.254-4.115-14.968-11.998h42.618c.115-1.6.229-3.199.229-4.57 0-17.367-9.37-33.25-29.821-33.25-17.825 0-30.279 14.397-30.279 31.879zm30.279-17.939c7.312 0 11.882 5.255 12.91 13.026h-26.164c1.371-7.884 6.055-13.026 13.254-13.026zm32.795 18.167v-.228c0-17.482 13.368-31.879 32.106-31.879 11.541 0 18.739 3.885 24.452 10.284l-10.626 11.426c-3.885-4.114-7.77-6.741-13.94-6.741-8.683 0-14.853 7.655-14.853 16.68v.23c0 9.368 6.056 16.91 15.539 16.91 5.827 0 9.826-2.514 14.053-6.513l10.17 10.284c-5.942 6.512-12.797 11.197-25.023 11.197-18.395 0-31.878-14.168-31.878-31.65zm64.102-16.11V92.45c0 14.168 7.198 18.396 17.824 18.396a25.607 25.607 0 0013.711-3.542v-13.94a17.66 17.66 0 01-8.569 2.17c-3.885 0-5.599-1.94-5.599-5.94V63.428h14.397V48.575h-14.397V32.921h-17.367v15.654h-7.313V63.43h7.313zm32.908 16.11v-.228c0-17.596 14.168-31.879 33.249-31.879 18.966 0 33.02 14.055 33.02 31.65v.229c0 17.595-14.168 31.878-33.249 31.878-18.966 0-33.02-14.054-33.02-31.65zm49.131 0v-.228c0-9.027-6.513-16.91-16.111-16.91-9.94 0-15.881 7.655-15.881 16.68v.23c0 9.026 6.513 16.91 16.11 16.91 9.94 0 15.882-7.656 15.882-16.682zm40.107-30.964h-17.367v61.242h17.367V87.195c0-14.625 7.084-21.595 18.625-21.595h.914V47.432c-10.284-.456-15.996 5.029-19.539 13.483v-12.34z"/>
</svg>