<svg xmlns="http://www.w3.org/2000/svg" width="495" height="151" fill="none" viewBox="0 0 495 151">
  <path fill="#000" d="M22.5 22.54h60v60h-60v-60z"/>
  <path fill="#fff" d="M29.98 71.2h22.5v3.75h-22.5V71.2zM36.03 34.53h-6.87v-4.58h18.7v4.58h-6.87v17.99h-4.96V34.53zM49.73 41.3v-.07A11.47 11.47 0 0161.5 29.56a11.68 11.68 0 018.9 3.46l-3.16 3.65a8.34 8.34 0 00-5.78-2.55c-3.8 0-6.54 3.16-6.54 7v.06c0 3.87 2.68 7.1 6.54 7.1 2.58 0 4.16-1 5.94-2.65l3.16 3.2a11.55 11.55 0 01-9.26 4A11.389 11.389 0 0149.73 41.3"/>
  <path fill="#000" d="M119 34.74h-18.23V22.59h49.64v12.15h-18.23V82.5H119V34.74z"/>
  <path fill="#000" d="M140.56 59.82v-.17c0-13.1 9.33-23.88 22.68-23.88 15.32 0 22.34 11.9 22.34 24.91 0 1-.09 2.22-.17 3.42h-31.93c1.29 5.9 5.39 9 11.21 9 4.37 0 7.53-1.37 11.13-4.71l7.45 6.63c-4.28 5.3-10.45 8.56-18.75 8.56-13.78-.05-23.96-9.72-23.96-23.76zm32.35-3.8c-.77-5.82-4.19-9.76-9.67-9.76-5.48 0-8.9 3.76-9.93 9.76h19.6zM188.52 69.32v-.17c0-10 7.62-14.64 18.48-14.64 3.822-.035 7.62.605 11.22 1.89v-.77c0-5.4-3.34-8.39-9.85-8.39-4.34.004-8.639.846-12.66 2.48l-3.26-9.93a40.581 40.581 0 0117.81-3.68c7.1 0 12.24 1.89 15.49 5.14 3.42 3.42 5 8.47 5 14.63V82.5h-12.62v-5c-3.13 3.52-7.53 5.86-13.86 5.86-8.65 0-15.75-4.97-15.75-14.04zm29.87-3v-2.3a20.322 20.322 0 00-8.3-1.71c-5.57 0-9 2.23-9 6.34v.17c0 3.51 2.91 5.56 7.1 5.56 6.09-.01 10.2-3.36 10.2-8.06zM235.87 36.63h13v6.5c3-3.85 6.93-7.36 13.52-7.36 6 0 10.53 2.65 12.93 7.28 4-4.71 8.81-7.28 15.06-7.28 9.67 0 15.49 5.82 15.49 16.86V82.5h-13V56.91c0-6.16-2.74-9.33-7.62-9.33s-7.87 3.17-7.87 9.33V82.5h-13V56.91c0-6.16-2.74-9.33-7.62-9.33s-7.87 3.17-7.87 9.33V82.5h-13l-.02-45.87zM310.26 52.72v-.17c0-17 12.83-31 31.23-31 11.3 0 18.06 3.77 23.63 9.25l-8.39 9.67c-4.62-4.2-9.33-6.76-15.32-6.76-10.1 0-17.37 8.38-17.37 18.65v.18c0 10.27 7.1 18.82 17.37 18.82 6.85 0 11-2.73 15.75-7l8.39 8.47c-6.17 6.59-13 10.7-24.57 10.7-17.63 0-30.72-13.61-30.72-30.81zM369.42 20.02h13.69v11.56h-13.69V20.02zm.34 16.61h13V82.5h-13V36.63zM395.07 69.49V47.75h-5.48V36.63h5.48V24.9h13v11.73h10.78v11.12h-10.77v19.6c0 3 1.28 4.45 4.19 4.45a13.29 13.29 0 006.42-1.62v10.44a19.25 19.25 0 01-10.27 2.65c-7.96 0-13.35-3.17-13.35-13.78zM457 36.63h13.52l-17.63 47c-3.51 9.33-7.27 12.84-15.06 12.84a21.54 21.54 0 01-11.56-3.17l4.37-9.41a11.782 11.782 0 005.56 1.8c2.23 0 3.42-.69 4.54-3l-18-46h13.78L447 67.86l10-31.23zM107.55 124.46v3.07h-2.39V104.9h2.39v9.83a7.192 7.192 0 016.14-3.57c3.84 0 7.66 3 7.66 8.31v.06c0 5.24-3.79 8.34-7.66 8.34a7.223 7.223 0 01-6.14-3.41zm11.35-4.9v-.06c0-3.78-2.61-6.2-5.65-6.2a6 6 0 00-5.8 6.17v.06a5.997 5.997 0 005.8 6.2c3.1 0 5.65-2.29 5.65-6.17zM136.56 111.5h2.54l-6.72 16.52c-1.37 3.32-2.92 4.52-5.34 4.52a7.266 7.266 0 01-3.41-.8l.81-1.89a5 5 0 002.51.59c1.43 0 2.33-.75 3.29-3l-7.29-16h2.64l5.82 13.36 5.15-13.3zM150.48 124.02l1.77-1.52c1.33 2 2.69 3.1 5 3.1 2.45 0 4.24-1.77 4.24-5.21v-14.56h2.48v14.51a7.821 7.821 0 01-2 5.7 6.635 6.635 0 01-4.77 1.8 7.428 7.428 0 01-6.72-3.82zM168.36 119.56v-.06c0-4.62 3.25-8.34 7.69-8.34 4.74 0 7.47 3.78 7.47 8.46.016.26.016.52 0 .78h-12.74a5.589 5.589 0 005.64 5.42 6.605 6.605 0 005.05-2.26l1.49 1.34a8.281 8.281 0 01-6.6 3 8 8 0 01-8-8.34zm12.74-.93c-.25-2.91-1.92-5.46-5.11-5.46-2.79 0-4.9 2.33-5.21 5.46h10.32zM188 123.28v-9.67h-2.23v-2.11H188v-4.84h2.39v4.84h5.08v2.11h-5.08v9.41a2.37 2.37 0 002.7 2.67 5.06 5.06 0 002.32-.56v2a6.06 6.06 0 01-2.88.68c-2.63 0-4.53-1.27-4.53-4.53zM199.34 105.83h9.24a7.998 7.998 0 015.68 1.92 4.801 4.801 0 011.39 3.47v.06a5.247 5.247 0 01-3.44 5c2.57.77 4.65 2.26 4.65 5.24v.06c0 3.72-3.13 5.92-7.87 5.92h-9.65v-21.67zm13.83 5.73c0-2.14-1.7-3.53-4.8-3.53h-6.61v7.47h6.42c2.94 0 5-1.33 5-3.88l-.01-.06zm-4.56 6.11h-6.85v7.66h7.29c3.28 0 5.33-1.46 5.33-3.88v-.06c0-2.37-1.98-3.72-5.77-3.72zM221.39 111.5h2.39v4.19a6.852 6.852 0 012.56-3.274 6.854 6.854 0 013.98-1.196v2.58h-.19c-3.5 0-6.35 2.51-6.35 7.34v6.39h-2.39V111.5zM232.23 122.88v-.06c0-3.38 2.79-5.18 6.85-5.18a17.09 17.09 0 014.93.68v-.56c0-2.88-1.77-4.37-4.78-4.37a11.118 11.118 0 00-4.86 1.18l-.72-2a13.218 13.218 0 015.83-1.34 7.002 7.002 0 015.18 1.77 6.317 6.317 0 011.64 4.68v9.8H244v-2.42a7.002 7.002 0 01-5.8 2.76c-2.97.05-5.97-1.65-5.97-4.94zm11.77-1.24v-1.55a16.802 16.802 0 00-4.71-.68c-3 0-4.68 1.3-4.68 3.32v.06c0 2 1.86 3.19 4 3.19 3.01.04 5.39-1.8 5.39-4.34zM251.12 105.36h2.73v2.66h-2.73v-2.66zm.16 6.14h2.38v16h-2.38v-16zM258.82 111.5h2.39v2.79a6.09 6.09 0 015.49-3.13c3.88 0 6.14 2.6 6.14 6.42v10h-2.39v-9.36c0-3-1.61-4.84-4.43-4.84a4.709 4.709 0 00-3.5 1.447 4.722 4.722 0 00-1.31 3.553v9.18h-2.39V111.5zM276.3 125.48l1.2-1.7a9.389 9.389 0 005.56 2c1.92 0 3.31-1 3.31-2.54v-.06c0-1.61-1.89-2.23-4-2.82-2.51-.71-5.3-1.58-5.3-4.53v-.06c0-2.76 2.3-4.59 5.46-4.59 2.048.037 4.044.651 5.76 1.77l-1.08 1.8a9.076 9.076 0 00-4.74-1.55c-1.9 0-3.1 1-3.1 2.32v.06c0 1.52 2 2.11 4.12 2.76 2.48.75 5.15 1.71 5.15 4.59v.09c0 3-2.52 4.81-5.71 4.81a10.994 10.994 0 01-6.63-2.35z"/>
</svg>
