<svg xmlns="http://www.w3.org/2000/svg" width="300" height="106" fill="none" viewBox="0 0 300 106">
  <defs>
    <linearGradient id="a" x1="20.29" x2="85.06" y1="69.21" y2="35.56" gradientUnits="userSpaceOnUse">
      <stop offset=".04" stop-color="#FC801D"/>
      <stop offset=".38" stop-color="#FE2857"/>
      <stop offset=".99" stop-color="#AF1DF5"/>
    </linearGradient>
  </defs>
  <path fill="#000" d="M114.24 56.02h-10v-6.74h27.18v6.74h-10v26.5h-7.22l.04-26.5zM128 69.94v-.1a13.271 13.271 0 0113.64-13.25 13.13 13.13 0 0113.56 13.16v.09a13.278 13.278 0 01-4.02 9.5 13.272 13.272 0 01-9.61 3.75c-7.78 0-13.57-5.84-13.57-13.15zm20.15 0v-.1c0-3.75-2.67-7-6.6-7-3.93 0-6.52 3.18-6.52 6.94v.09a6.723 6.723 0 001.831 4.892 6.73 6.73 0 004.779 2.108c4.1 0 6.53-3.18 6.53-6.93h-.02zM157.08 69.94v-.1a13.272 13.272 0 0113.64-13.25 13.132 13.132 0 0113.54 13.16v.09a13.272 13.272 0 01-13.64 13.25 13.128 13.128 0 01-13.54-13.15zm20.15 0v-.1a6.723 6.723 0 00-1.831-4.892 6.73 6.73 0 00-4.779-2.108c-4.08 0-6.51 3.18-6.51 6.94v.09a6.723 6.723 0 001.831 4.891 6.73 6.73 0 004.779 2.109c4.07 0 6.51-3.18 6.51-6.93zM187.68 47.86h7.12v34.66h-7.12V47.86zM207 79.19v3.33h-7.13V47.86H207v12.86a9.191 9.191 0 017.82-4.13c5.86 0 11.44 4.66 11.44 13.16v.09c0 8.5-5.48 13.15-11.44 13.15a9.567 9.567 0 01-7.82-3.8zm12.14-9.35v-.09c0-4.23-2.82-7-6.14-7s-6.1 2.8-6.1 7v.09c0 4.23 2.77 7 6.1 7 3.33 0 6.11-2.73 6.11-7h.03zM228.67 69.94v-.1a13.272 13.272 0 0113.64-13.25 13.132 13.132 0 0113.54 13.16v.09a13.272 13.272 0 01-13.64 13.25 13.128 13.128 0 01-13.54-13.15zm20.15 0v-.1a6.723 6.723 0 00-1.831-4.892 6.73 6.73 0 00-4.779-2.108c-4.07 0-6.51 3.18-6.51 6.94v.09a6.723 6.723 0 001.831 4.891 6.73 6.73 0 004.779 2.109c4.07 0 6.51-3.18 6.51-6.93z"/>
  <path fill="#000" d="M267 64.52l4.73-7.45h7.45l-8.48 12.44 8.86 13h-7.64l-5.06-7.93-5.07 7.93h-7.49l8.81-12.92-8.48-12.53h7.64l4.73 7.46zM52.42 90.02l32.47-18.78V33.72L52.42 52.5v37.52z"/>
  <path fill="#fff" d="M72.89 71.3l-14.15 8.14v-5.19l14.15-8.14v5.19z"/>
  <path fill="url(#a)" d="M52.42 15.02l-32.47 18.7v37.52l32.47 18.78V52.5l32.47-18.78-32.47-18.7z"/>
  <path fill="#000" d="M102.93 38.36l1.54-1.34c1.16 1.75 2.35 2.7 4.32 2.7 2.13 0 3.7-1.54 3.7-4.54V22.54h2.16v12.64a6.812 6.812 0 01-1.73 5 5.77 5.77 0 01-4.16 1.57 6.49 6.49 0 01-5.83-3.39zM118.54 34.5c0-4 2.84-7.26 6.7-7.26 4.13 0 6.5 3.29 6.5 7.36.016.226.016.454 0 .68h-11.09a4.868 4.868 0 004.91 4.72 5.76 5.76 0 004.4-2l1.3 1.16a7.208 7.208 0 01-5.75 2.62 6.94 6.94 0 01-6.97-7.28zm11.1-.81c-.22-2.54-1.68-4.75-4.46-4.75-2.43 0-4.26 2-4.53 4.75h8.99zM135.64 37.74v-8.42h-1.94v-1.84h1.94v-4.21h2.08v4.21h4.43v1.84h-4.43v8.15a2.066 2.066 0 00.598 1.745 2.069 2.069 0 001.752.575c.695 0 1.381-.164 2-.48v1.78c-.779.4-1.644.602-2.52.59-2.21 0-3.91-1.11-3.91-3.94zM145.6 22.54h8.05a6.91 6.91 0 014.94 1.68 4.2 4.2 0 011.21 3v.05a4.57 4.57 0 01-3 4.38c2.24.67 4.05 2 4.05 4.56 0 3.24-2.73 5.16-6.86 5.16h-8.4l.01-18.83zm12 5c0-1.87-1.48-3.08-4.18-3.08h-5.75v6.5h5.59c2.56 0 4.34-1.16 4.34-3.37v-.05zm-4 5.31h-6v6.67h6.34c2.86 0 4.65-1.27 4.65-3.37v-.06c.11-2.07-1.59-3.24-4.91-3.24h-.08zM164.84 27.48h2.08v3.65a6 6 0 015.7-3.89v2.24h-.17c-3 0-5.53 2.19-5.53 6.4v5.56h-2.08V27.48zM174.32 37.39v-.06c0-2.94 2.43-4.5 6-4.5a14.85 14.85 0 014.29.59v-.48c0-2.52-1.54-3.81-4.15-3.81a9.75 9.75 0 00-4.24 1l-.62-1.7a11.551 11.551 0 015.07-1.16 6.16 6.16 0 014.51 1.54 5.56 5.56 0 011.43 4.08v8.53h-2v-2.09a6.096 6.096 0 01-5 2.4c-2.68 0-5.29-1.48-5.29-4.34zm10.28-1.08v-1.35a14.466 14.466 0 00-4.1-.59c-2.62 0-4.08 1.13-4.08 2.88v.06c0 1.75 1.62 2.78 3.51 2.78 2.56 0 4.67-1.57 4.67-3.78zM190.81 22.14h2.37v2.29h-2.37v-2.29zm.13 5.34H193v14h-2.08l.02-14zM197.55 27.48h2.08v2.43a5.292 5.292 0 014.78-2.72c3.37 0 5.34 2.26 5.34 5.58v8.67h-2.08v-8.15c0-2.6-1.4-4.21-3.86-4.21a4.098 4.098 0 00-4.18 4.37v8h-2.08V27.48zM212.8 39.66l1.06-1.49a8.1 8.1 0 004.83 1.78c1.67 0 2.89-.86 2.89-2.21 0-1.41-1.65-2-3.49-2.46-2.18-.62-4.61-1.38-4.61-3.94v-.06c0-2.4 2-4 4.75-4a9.489 9.489 0 015 1.54l-.94 1.56a8 8 0 00-4.11-1.36c-1.65 0-2.7.87-2.7 2v.05c0 1.33 1.72 1.84 3.59 2.41 2.16.64 4.48 1.48 4.48 4 0 2.65-2.19 4.19-5 4.19a9.6 9.6 0 01-5.75-2.01z"/>
</svg>
