<svg xmlns="http://www.w3.org/2000/svg" width="488" height="150" fill="none" viewBox="0 0 488 150">
  <path fill="#000" d="M22.5 22.5h60v60h-60v-60z"/>
  <path fill="#fff" d="M29.98 71.16h22.5v3.75h-22.5v-3.75zM36.48 43.58l-8.67-13.67h5.8L39 38.97l5.48-9.06h5.64l-8.67 13.57v9h-4.97v-8.9zM60.05 34.49h-6.87v-4.58h18.7v4.58h-6.86v17.99h-4.97V34.49z"/>
  <path fill="#000" d="M123.76 58.6l-23-36.25h15.39l14.27 24 14.54-24h15l-23 36v23.84h-13.2V58.6z"/>
  <path fill="#000" d="M147.14 59.54v-.18c0-13.16 10.6-23.85 24.88-23.85s24.7 10.52 24.7 23.68v.17c0 13.17-10.6 23.86-24.88 23.86s-24.7-10.52-24.7-23.68zm36.76 0v-.18c0-6.75-4.87-12.65-12.06-12.65-7.43 0-11.88 5.73-11.88 12.48v.17C160 66.12 164.83 72 172 72c7.45 0 11.9-5.71 11.9-12.46zM201.1 66V36.37h13v25.56c0 6.15 2.91 9.32 7.86 9.32s8.13-3.17 8.13-9.32V36.37h13v45.82h-13v-6.5c-3 3.85-6.84 7.36-13.43 7.36-9.83 0-15.56-6.5-15.56-17.05zM265.21 34.49H247V22.35h49.59v12.14h-18.21v47.7h-13.17v-47.7zM297.94 36.37h13v9.23c2.65-6.33 6.92-10.43 14.61-10.09V49.1h-.68c-8.63 0-13.93 5.22-13.93 16.16v16.93h-13V36.37zM326.13 69v-.17c0-10 7.61-14.62 18.47-14.62a32.63 32.63 0 0111.2 1.88v-.76c0-5.33-3.34-8.33-9.8-8.33-4.34.004-8.639.846-12.66 2.48l-3.25-9.92a40.52 40.52 0 0117.79-3.68c7.09 0 12.22 1.88 15.47 5.13 3.42 3.42 5 8.47 5 14.62v26.56h-12.64v-5c-3.16 3.51-7.52 5.81-13.85 5.81-8.63 0-15.73-4.91-15.73-14zM356 66v-2.28a20.229 20.229 0 00-8.32-1.72c-5.56 0-9 2.23-9 6.33v.17c0 3.51 2.91 5.56 7.09 5.56 6.09.01 10.23-3.33 10.23-8.06zM373 59.53v-.17a23.533 23.533 0 0114.776-22.167A23.531 23.531 0 01397 35.51c8.63 0 14 2.91 18.29 7.69l-7.95 8.55c-2.91-3.07-5.81-5-10.43-5-6.5 0-11.11 5.73-11.11 12.48v.17c0 7 4.53 12.66 11.62 12.66 4.36 0 7.36-1.88 10.52-4.88l7.61 7.7c-4.45 4.87-9.58 8.38-18.72 8.38A23.412 23.412 0 01373 59.53zM420.19 19.78h13V53l15.21-16.63H464l-17.44 18 18 27.79h-15.05L437.8 63.38l-4.62 4.87v13.94h-13l.01-62.41zM106.51 124.87v3.07h-2.39V105.3h2.39v9.83a7.205 7.205 0 016.14-3.56c3.84 0 7.65 3 7.65 8.31v.06c0 5.24-3.78 8.34-7.65 8.34a7.223 7.223 0 01-6.14-3.41zm11.35-4.9v-.06c0-3.79-2.61-6.2-5.65-6.2a6 6 0 00-5.8 6.17v.06a5.997 5.997 0 005.8 6.2c3.1 0 5.65-2.29 5.65-6.14v-.03zM135.52 111.91h2.54l-6.73 16.55C130 131.78 128.42 133 126 133a7.397 7.397 0 01-3.41-.8l.81-1.9c.77.416 1.636.619 2.51.59 1.43 0 2.32-.74 3.29-3l-7.29-16h2.63l5.83 13.36 5.15-13.34zM149.44 124.4l1.76-1.52c1.34 2 2.7 3.1 5 3.1 2.44 0 4.24-1.76 4.24-5.2v-14.55h2.48v14.51a7.836 7.836 0 01-2 5.71 6.66 6.66 0 01-4.78 1.8 7.413 7.413 0 01-6.7-3.85zM167.32 120v-.06c0-4.62 3.25-8.34 7.69-8.34 4.74 0 7.47 3.78 7.47 8.46.016.26.016.52 0 .78h-12.74a5.589 5.589 0 005.64 5.42 6.635 6.635 0 005.05-2.26l1.49 1.33a8.256 8.256 0 01-6.6 3 7.992 7.992 0 01-5.777-2.459A8 8 0 01167.32 120zm12.74-.93c-.25-2.92-1.92-5.46-5.12-5.46-2.79 0-4.89 2.33-5.2 5.46h10.32zM186.91 123.69V114h-2.23v-2.11h2.23v-4.84h2.39v4.84h5.08V114h-5.08v9.36a2.37 2.37 0 002.69 2.67c.81.002 1.609-.19 2.33-.56v2.05a6.073 6.073 0 01-2.88.68c-2.58.02-4.53-1.2-4.53-4.51zM198.3 106.23h9.24a7.997 7.997 0 015.68 1.93c.45.457.805 1 1.044 1.595.238.596.356 1.233.346 1.875v.06a5.242 5.242 0 01-3.44 5c2.57.78 4.65 2.27 4.65 5.24v.07c0 3.72-3.13 5.92-7.88 5.92h-9.64v-21.69zm13.83 5.77c0-2.14-1.71-3.53-4.81-3.53h-6.6v7.47h6.42c2.94 0 5-1.34 5-3.88l-.01-.06zm-4.56 6.11h-6.85v7.66H208c3.28 0 5.33-1.46 5.33-3.88v-.06c.01-2.39-1.97-3.75-5.76-3.75v.03zM220.35 111.91h2.39v4.18a6.844 6.844 0 012.561-3.27 6.845 6.845 0 013.979-1.19v2.57h-.19c-3.5 0-6.35 2.51-6.35 7.35v6.39h-2.39v-16.03zM231.19 123.29v-.07c0-3.37 2.79-5.17 6.85-5.17a17.165 17.165 0 014.93.68v-.56c0-2.88-1.77-4.37-4.78-4.37a11.005 11.005 0 00-4.86 1.18l-.72-2a13.36 13.36 0 015.83-1.33 7.003 7.003 0 015.18 1.77 6.328 6.328 0 011.64 4.68v9.8H243v-2.42a7.005 7.005 0 01-5.8 2.76c-3.01.04-6.01-1.67-6.01-4.95zm11.81-1.24v-1.55a16.729 16.729 0 00-4.71-.69c-3 0-4.69 1.31-4.69 3.32v.06c0 2 1.86 3.2 4 3.2 2.98 0 5.4-1.8 5.4-4.34zM250.08 105.77h2.73v2.63h-2.73v-2.63zm.15 6.14h2.39v16h-2.39v-16zM257.78 111.91h2.39v2.79a6.066 6.066 0 015.49-3.13c3.87 0 6.14 2.6 6.14 6.41v10h-2.39v-9.37c0-3-1.61-4.83-4.43-4.83a4.709 4.709 0 00-3.5 1.447 4.722 4.722 0 00-1.31 3.553v9.18h-2.39v-16.05zM275.25 125.89l1.21-1.7a9.386 9.386 0 005.55 2c1.93 0 3.32-1 3.32-2.54v-.06c0-1.61-1.89-2.23-4-2.82-2.51-.72-5.3-1.59-5.3-4.53v-.06c0-2.76 2.29-4.59 5.46-4.59 2.048.037 4.044.65 5.76 1.77l-1.08 1.8a9 9 0 00-4.75-1.56c-1.89 0-3.1 1-3.1 2.33v.07c0 1.52 2 2.11 4.13 2.76 2.48.75 5.15 1.71 5.15 4.59v.06c0 3-2.52 4.81-5.71 4.81a11 11 0 01-6.64-2.33z"/>
</svg>
