<?xml version="1.0" encoding="utf-8"?>
<!-- Generator: Adobe Illustrator 26.2.1, SVG Export Plug-In . SVG Version: 6.00 Build 0)  -->
<svg version="1.1"
	 id="svg241" xmlns:cc="http://creativecommons.org/ns#" xmlns:dc="http://purl.org/dc/elements/1.1/" xmlns:inkscape="http://www.inkscape.org/namespaces/inkscape" xmlns:rdf="http://www.w3.org/1999/02/22-rdf-syntax-ns#" xmlns:sodipodi="http://sodipodi.sourceforge.net/DTD/sodipodi-0.dtd" xmlns:svg="http://www.w3.org/2000/svg"
	 xmlns="http://www.w3.org/2000/svg" xmlns:xlink="http://www.w3.org/1999/xlink" x="0px" y="0px" viewBox="0 0 373.9 373.9"
	 style="enable-background:new 0 0 373.9 373.9;" xml:space="preserve">
<style type="text/css">
	.st0{display:none;}
	.st1{display:inline;fill:none;stroke:#000000;stroke-width:0.75;stroke-miterlimit:10;}
	.st2{display:inline;fill:#8433E5;stroke:#000000;stroke-width:0.75;stroke-miterlimit:10;}
	.st3{display:inline;fill:#2D7FDC;stroke:#000000;stroke-width:0.75;stroke-miterlimit:10;}
	.st4{display:inline;fill:#FFFAFF;stroke:#000000;stroke-width:0.75;stroke-miterlimit:10;}
	.st5{display:inline;fill:#68C0B1;stroke:#000000;stroke-width:0.75;stroke-miterlimit:10;}
	.st6{display:inline;fill:#F4FAFB;stroke:#000000;stroke-width:0.75;stroke-miterlimit:10;}
	.st7{fill:none;stroke:#000000;stroke-width:0.6851;stroke-miterlimit:10;}
	.st8{fill:#8433E5;stroke:#000000;stroke-width:0.6851;stroke-miterlimit:10;}
	.st9{fill:#2D7FDC;stroke:#000000;stroke-width:0.6851;stroke-miterlimit:10;}
	.st10{fill:#FFFAFF;stroke:#000000;stroke-width:0.6851;stroke-miterlimit:10;}
	.st11{fill:#68C0B1;stroke:#000000;stroke-width:0.6851;stroke-miterlimit:10;}
	.st12{fill:#F4FAFB;stroke:#000000;stroke-width:0.6851;stroke-miterlimit:10;}
</style>
<sodipodi:namedview  bordercolor="#666666" borderopacity="1" gridtolerance="10" guidetolerance="10" id="namedview243" inkscape:current-layer="svg241" inkscape:cx="-413.24164" inkscape:cy="369.67422" inkscape:pageopacity="0" inkscape:pageshadow="2" inkscape:window-height="986" inkscape:window-maximized="1" inkscape:window-width="1920" inkscape:window-x="-11" inkscape:window-y="-11" inkscape:zoom="0.2979798" objecttolerance="10" pagecolor="#ffffff" showgrid="false">
	</sodipodi:namedview>
<g id="Layer_1" transform="translate(0,-294)" class="st0">
</g>
<g id="Luna" transform="translate(0,-294)" class="st0">
	<path id="path118" inkscape:connector-curvature="0" class="st1" d="M189.9,298.3c-0.7-0.1-1.3-0.3-1.7-0.8s-0.5-1.2,0-1.7
		c1-0.9,2.8,0.4,3.4,1.2c0.7,0.8,0.7,1.9,0.3,2.9c-0.9,2.1-3.6,2.5-5,0.7c-1.2-1.6-1.9-4.2-1.2-6.1c0.6-1.8,3.3-2.7,5-2.5
		c1.3,0.1,3,0.9,3.9,1.9c1.9,2.2,1,6.2,0.4,8.7c-0.3,1.5-0.4,3-0.5,4.4s-0.1,2.9,0.1,4.3"/>
	<path id="path120" inkscape:connector-curvature="0" class="st1" d="M180.4,286.2c-0.8-0.2-2.2-0.9-2-1.9c0.2-0.9,1.2-1.3,2-0.9
		c0.5,0.3,1,0.9,1.3,1.4c0.4,0.8,0.5,3-0.3,3.7c-0.9,0.7-2.4,0.7-3.3,0.1c-1.8-1.2-3.5-3.6-2.7-5.9c0.4-1.1,1-2.3,2-3
		c1.5-1,4.1-0.4,5.6,0.6c1.6,1.1,2.5,2.8,2.5,4.7c0,1.1,0.1,2.3-0.1,3.4c-0.2,1.1-0.8,2-1.1,3.1c-0.3,1-0.2,2.2-0.2,3.3
		c0.1,0.9,0.3,2,1,2.6c0.2,0.2,0.4,0.3,0.6,0.5"/>
	<path id="path122" inkscape:connector-curvature="0" class="st1" d="M170.3,274c-0.8,0.3-1.5,0.2-2-0.5s-0.6-1.6,0-2.2
		c1.4-1.1,3.2-0.1,3.9,1.3c0.5,0.9,0.5,1.9,0.3,2.9c-0.2,0.9-0.6,1.9-1.5,2.4c-1,0.5-2-0.1-2.8-0.7c-1.1-0.8-2.1-1.9-2.4-3.3
		c-0.2-0.9-0.1-1.7,0-2.6c0-1.4,0.8-2.8,2-3.5c1.1-0.6,3-0.8,4.2-0.3c1.2,0.4,2.3,1.7,2.8,2.8c0.7,1.7,0.5,3.5,0.5,5.2
		c0,1.6,0,3.2-0.2,4.8c-0.1,1.3-0.5,2.7,0.3,3.9"/>
	<path id="path124" inkscape:connector-curvature="0" class="st2" d="M158.7,194.5c3-16.1,14-61.3,36.6-76.8
		c27.1-18.6,67.2-12.1,72.6-13.3c5.4-1.1,15.7-6.5,21.4-11.3c-9.5,14.1-31.6,25.7-44.6,30.8c-13,5.1-41.2,14.7-46.3,17
		s-27.7,14.4-30.5,40.1C165,206.7,156.9,203.1,158.7,194.5z"/>
	<path id="path126" inkscape:connector-curvature="0" class="st3" d="M265.3,339.3c-19.5-20.5-46.6-47.4-71.2-55.5
		c-24.6-8.2-8.9-18.6,3.7-11.3C210.5,279.8,258.2,322.6,265.3,339.3z"/>
	<polygon id="polygon128" class="st3" points="205.7,315.8 211.9,312.3 258.4,366.6 	"/>
	<path id="path130" inkscape:connector-curvature="0" class="st3" d="M99.6,212.7c-5.3,38.6,47.7,95.1,73,103.1
		c2.7-0.9-15.2-24.7-11.2-35.9c3.8-2.5,7.3,1.8,9.6,0.5s-4.2-4.4-5.3-6.8s-16.1-22.5-13.8-1.4c-3.3-9-16-28-12.7-4.7
		c-4.3-17.2-23.8-42-15.3-9.8C113,245,105.3,208,99.6,212.7L99.6,212.7z"/>
	<path id="path132" inkscape:connector-curvature="0" class="st3" d="M223.8,155.5c-9.6,5.1-16.7,23.9-18.4,34.7
		s-8.8,22.4-14.1,21.3c-5.4-1.1-13.3-14.8-14.7-22.4s-6.2,2.8-4.2,8.3s7.1,26.8,21.2,26.3c14.1-0.6,18.1-35.3,18.4-38.4
		C212.2,182.1,216,164,223.8,155.5L223.8,155.5z"/>
	<path id="path134" inkscape:connector-curvature="0" class="st3" d="M270.2,116.5c-68.3,20.4-116.4,56.5-116.4,107.7
		c0,26.9,14.1,68.6,44.9,90l13.6,16.4c0,0-3-6.6-4.4-12.8c0,0,7.2-3.6,8.2-5.6c0.8-1.8-5.6-5.6-2.4-4.8c10.1,2.6-15-13-16.9-22.4
		c-0.4-2.1,8-13.2,6.9-20s-13.4-17.4-19.1-20.8c-18.1-10.8-13.7-50,2.8-69.5C209.1,149.1,250.1,126.1,270.2,116.5L270.2,116.5z"/>
	<path id="path136" inkscape:connector-curvature="0" class="st3" d="M188.5,270.5c16.7,8.8,29.8,9,35.4,5.9
		c8.7-4.8-13.2-28-26-34.7c5.8,7.7,21.7,22.6,20.8,28.3c-0.6,3.7-17.8-1.1-28.8-8.2"/>
	<path id="path138" inkscape:connector-curvature="0" class="st3" d="M207.6,317.7c4.9,3.1,32.8,14.8,35.3,14.8l-3.2-10.2
		c-2.3-1-13.1-9.4-15.8-13.1c-2.7-3.7-5.5-9.6-16.7-4.5"/>
	<line id="line140" class="st1" x1="233.5" y1="321.1" x2="240.5" y2="325"/>
	<path id="path142" inkscape:connector-curvature="0" class="st2" d="M223.8,317.6l-4.5-5.9l-1.9-0.1c-1.3,1.2-2.7,3.3-1.7,6.2
		C218.6,318.5,221.6,318.4,223.8,317.6z"/>
	<path id="path144" inkscape:connector-curvature="0" class="st4" d="M217.4,311.5l-10.3-0.7c2.3,3.8,5.4,5.9,8.6,6.9
		C214.7,314.8,216.2,312.7,217.4,311.5L217.4,311.5z"/>
	<path id="path146" inkscape:connector-curvature="0" class="st2" d="M194.3,307c0.1-1.5,0.2-3,0.5-4.4c0.6-2.5,1.6-6.5-0.4-8.7
		c-0.9-1-2.6-1.8-3.9-1.9c-1.7-0.2-4.4,0.8-5,2.5c-0.4,1-0.3,2.2,0,3.4l0.1,0.1l-0.1-0.1c0.3,1,0.7,2,1.3,2.7c1.4,1.8,4,1.5,5-0.7
		c0.4-0.9,0.4-2-0.3-2.9c-0.6-0.8-2.4-2.2-3.4-1.2c-0.5,0.5-0.4,1.2,0,1.7s1.1,0.7,1.7,0.8c-0.7-0.1-1.3-0.3-1.7-0.8s-0.5-1.2,0-1.7
		c1-0.9,2.8,0.4,3.4,1.2c0.7,0.8,0.7,1.9,0.3,2.9c-0.9,2.1-3.6,2.5-5,0.7c-0.6-0.7-1-1.7-1.3-2.7c-0.2-0.1-0.3-0.3-0.5-0.4
		c-0.7-0.7-0.9-1.7-1-2.6c-0.1-1-0.1-2.3,0.2-3.3c0.3-1.1,0.9-2,1.1-3.1c0.2-1.1,0.1-2.3,0.1-3.4c0-1.9-1-3.6-2.5-4.7
		c-1.4-1-4-1.6-5.6-0.6c-1,0.7-1.6,1.9-2,3c-0.2,0.4-0.2,0.9-0.2,1.4c0,0,0,0.1,0.1,0.1c0,0,0-0.1-0.1-0.1c0.1,1.8,1.5,3.6,2.9,4.5
		c0.9,0.6,2.4,0.6,3.3-0.1c0.8-0.7,0.6-2.9,0.3-3.7c-0.2-0.5-0.8-1.1-1.3-1.4c-0.8-0.4-1.8,0-2,0.9c-0.2,1,1.2,1.7,2,1.9
		c-0.8-0.2-2.2-0.9-2-1.9c0.2-0.9,1.2-1.3,2-0.9c0.5,0.3,1,0.9,1.3,1.4c0.4,0.8,0.5,3-0.3,3.7c-0.9,0.7-2.4,0.7-3.3,0.1
		c-1.5-0.9-2.8-2.7-2.9-4.5c-0.7-1.2-0.4-2.5-0.2-3.8c0.2-1.6,0.2-3.2,0.2-4.8c0-1.8,0.2-3.6-0.5-5.2c-0.5-1.1-1.6-2.4-2.8-2.8
		c-1.2-0.5-3.1-0.3-4.2,0.3c-1.2,0.7-2,2.1-2,3.5c0,0.7-0.1,1.5,0,2.2c0.4,0.9,0.9,1.8,1.3,2.7c0.3,0.4,0.7,0.7,1.1,1
		c0.8,0.6,1.9,1.2,2.8,0.7c0.9-0.5,1.3-1.5,1.5-2.4c0.3-1,0.2-2-0.3-2.9c-0.7-1.4-2.5-2.5-3.9-1.3c-0.7,0.6-0.5,1.6,0,2.2
		c0.5,0.8,1.2,0.8,2,0.5c-0.8,0.3-1.5,0.2-2-0.5s-0.6-1.6,0-2.2c1.4-1.1,3.2-0.1,3.9,1.3c0.5,0.9,0.5,1.9,0.3,2.9
		c-0.2,0.9-0.6,1.9-1.5,2.4c-1,0.5-2-0.1-2.8-0.7c-0.4-0.3-0.8-0.6-1.1-1c6.6,13.1,15.6,25.5,27.4,34.9
		C194.2,309.7,194.2,308.4,194.3,307L194.3,307z"/>
</g>
<g id="Celestia" transform="translate(0,-294)" class="st0">
	<path id="path149" inkscape:connector-curvature="0" class="st1" d="M397.7,161.3c0.7,0.1,1.3,0.3,1.7,0.8c0.4,0.5,0.5,1.2,0,1.7
		c-1,0.9-2.8-0.4-3.4-1.2c-0.7-0.8-0.7-1.9-0.3-2.9c0.9-2.1,3.6-2.5,5-0.7c1.2,1.6,1.9,4.2,1.2,6.1c-0.6,1.8-3.3,2.7-5,2.5
		c-1.3-0.1-3-0.9-3.9-1.9c-1.9-2.2-1-6.2-0.4-8.7c0.3-1.5,0.4-3,0.5-4.4s0.1-2.9-0.1-4.3"/>
	<path id="path151" inkscape:connector-curvature="0" class="st1" d="M407.2,173.4c0.8,0.2,2.2,0.9,2,1.9c-0.2,0.9-1.2,1.3-2,0.9
		c-0.5-0.3-1-0.9-1.3-1.4c-0.4-0.8-0.5-3,0.3-3.7c0.9-0.7,2.4-0.7,3.3-0.1c1.8,1.2,3.5,3.6,2.7,5.9c-0.4,1.1-1,2.3-2,3
		c-1.5,1-4.1,0.4-5.6-0.6c-1.6-1.1-2.5-2.8-2.5-4.7c0-1.1-0.1-2.3,0.1-3.4s0.8-2,1.1-3.1c0.3-1,0.2-2.2,0.2-3.3
		c-0.1-0.9-0.3-2-1-2.6c-0.2-0.2-0.4-0.3-0.6-0.5"/>
	<path id="path153" inkscape:connector-curvature="0" class="st1" d="M417.3,185.7c0.8-0.3,1.5-0.2,2,0.5s0.6,1.6,0,2.2
		c-1.4,1.1-3.2,0.1-3.9-1.3c-0.5-0.9-0.5-1.9-0.3-2.9c0.2-0.9,0.6-1.9,1.5-2.4c1-0.5,2,0.1,2.8,0.7c1.1,0.8,2.1,1.9,2.4,3.3
		c0.2,0.9,0.1,1.7,0,2.6c0,1.4-0.8,2.8-2,3.5c-1.1,0.6-3,0.8-4.2,0.3c-1.2-0.4-2.3-1.7-2.8-2.8c-0.7-1.7-0.5-3.5-0.5-5.2
		c0-1.6,0-3.2,0.2-4.8c0.1-1.3,0.5-2.7-0.3-3.9"/>
	<path id="path155" inkscape:connector-curvature="0" class="st5" d="M428.9,265.1c-3,16.1-14,61.3-36.6,76.8
		c-27.1,18.6-67.2,12.1-72.6,13.3c-5.4,1.1-15.7,6.5-21.4,11.3c9.5-14.1,31.6-25.7,44.6-30.8c13-5.1,41.2-14.7,46.3-17
		c5.1-2.3,27.7-14.4,30.5-40.1C422.6,253,430.7,256.6,428.9,265.1L428.9,265.1z"/>
	<path id="path157" inkscape:connector-curvature="0" class="st6" d="M322.3,120.3c19.5,20.5,46.6,47.4,71.2,55.5
		c24.6,8.2,8.9,18.6-3.7,11.3C377.1,179.8,329.4,137.1,322.3,120.3L322.3,120.3z"/>
	<polygon id="polygon159" class="st6" points="381.9,143.8 375.7,147.3 329.2,93.1 	"/>
	<path id="path161" inkscape:connector-curvature="0" class="st6" d="M488,247c5.3-38.6-47.7-95.1-73-103.2
		c-2.7,0.9,15.2,24.7,11.2,35.9c-3.8,2.5-7.3-1.8-9.6-0.5c-2.3,1.3,4.2,4.4,5.3,6.8c1.1,2.4,16.1,22.5,13.8,1.4
		c3.3,9,16,28,12.7,4.7c4.3,17.2,23.8,42,15.3,9.8C474.6,214.7,482.3,251.6,488,247L488,247z"/>
	<path id="path163" inkscape:connector-curvature="0" class="st6" d="M363.8,304.1c9.6-5.1,16.7-23.9,18.4-34.7
		c1.7-10.8,8.8-22.4,14.1-21.3c5.4,1.1,13.3,14.8,14.7,22.4c1.4,7.6,6.2-2.8,4.2-8.3s-7.1-26.8-21.2-26.3
		c-14.1,0.6-18.1,35.3-18.4,38.4C375.4,277.6,371.6,295.7,363.8,304.1L363.8,304.1z"/>
	<path id="path165" inkscape:connector-curvature="0" class="st6" d="M317.4,343.1c68.3-20.4,116.4-56.5,116.4-107.7
		c0-26.9-14.1-68.6-44.9-90L375.3,129c0,0,3,6.6,4.4,12.8c0,0-7.2,3.6-8.2,5.6c-0.8,1.8,5.6,5.6,2.4,4.8c-10.1-2.6,15,13,16.9,22.4
		c0.4,2.1-8,13.2-6.9,20s13.4,17.4,19.1,20.8c18.1,10.8,13.7,50-2.8,69.5C378.5,310.6,337.5,333.5,317.4,343.1L317.4,343.1z"/>
	<path id="path167" inkscape:connector-curvature="0" class="st6" d="M399.1,189.1c-16.7-8.8-29.8-9-35.4-5.9
		c-8.7,4.8,13.2,28,26,34.7c-5.8-7.7-21.7-22.6-20.8-28.3c0.6-3.7,17.8,1.1,28.8,8.2"/>
	<path id="path169" inkscape:connector-curvature="0" class="st6" d="M380.1,142c-4.9-3.1-32.8-14.8-35.3-14.8l3.2,10.2
		c2.3,1,13.1,9.4,15.8,13.1c2.7,3.7,5.5,9.6,16.7,4.5"/>
	<line id="line171" class="st1" x1="354.1" y1="138.5" x2="347.1" y2="134.6"/>
	<path id="path173" inkscape:connector-curvature="0" class="st5" d="M363.8,142.1l4.5,5.9l1.9,0.1c1.3-1.2,2.7-3.3,1.7-6.2
		C369,141.1,366,141.2,363.8,142.1z"/>
	<path id="path175" inkscape:connector-curvature="0" class="st4" d="M370.2,148.1l10.3,0.7c-2.3-3.8-5.4-5.9-8.6-6.9
		C372.9,144.9,371.4,147,370.2,148.1L370.2,148.1z"/>
	<path id="path177" inkscape:connector-curvature="0" class="st5" d="M393.3,152.6c-0.1,1.5-0.2,3-0.5,4.4c-0.6,2.5-1.6,6.5,0.4,8.7
		c0.9,1,2.6,1.8,3.9,1.9c1.7,0.2,4.4-0.8,5-2.5c0.4-1,0.3-2.2,0-3.4l-0.1-0.1l0.1,0.1c-0.3-1-0.7-2-1.3-2.7c-1.4-1.8-4-1.5-5,0.7
		c-0.4,0.9-0.4,2,0.3,2.9c0.6,0.8,2.4,2.2,3.4,1.2c0.5-0.5,0.4-1.2,0-1.7s-1.1-0.7-1.7-0.8c0.7,0.1,1.3,0.3,1.7,0.8
		c0.4,0.5,0.5,1.2,0,1.7c-1,0.9-2.8-0.4-3.4-1.2c-0.7-0.8-0.7-1.9-0.3-2.9c0.9-2.1,3.6-2.5,5-0.7c0.6,0.7,1,1.7,1.3,2.7
		c0.2,0.1,0.3,0.3,0.5,0.4c0.7,0.7,0.9,1.7,1,2.6c0.1,1,0.1,2.3-0.2,3.3c-0.3,1.1-0.9,2-1.1,3.1s-0.1,2.3-0.1,3.4
		c0,1.9,1,3.6,2.5,4.7c1.4,1,4,1.6,5.6,0.6c1-0.7,1.6-1.9,2-3c0.2-0.4,0.2-0.9,0.2-1.4c0,0,0-0.1-0.1-0.1c0,0,0,0.1,0.1,0.1
		c-0.1-1.8-1.5-3.6-2.9-4.5c-0.9-0.6-2.4-0.6-3.3,0.1c-0.8,0.7-0.6,2.9-0.3,3.7c0.2,0.5,0.8,1.1,1.3,1.4c0.8,0.4,1.8,0,2-0.9
		c0.2-1-1.2-1.7-2-1.9c0.8,0.2,2.2,0.9,2,1.9c-0.2,0.9-1.2,1.3-2,0.9c-0.5-0.3-1-0.9-1.3-1.4c-0.4-0.8-0.5-3,0.3-3.7
		c0.9-0.7,2.4-0.7,3.3-0.1c1.5,0.9,2.8,2.7,2.9,4.5c0.7,1.2,0.4,2.5,0.2,3.8c-0.2,1.6-0.2,3.2-0.2,4.8c0,1.8-0.2,3.6,0.5,5.2
		c0.5,1.1,1.6,2.4,2.8,2.8c1.2,0.5,3.1,0.3,4.2-0.3c1.2-0.7,2-2.1,2-3.5c0-0.7,0.1-1.5,0-2.2c-0.4-0.9-0.9-1.8-1.3-2.7
		c-0.3-0.4-0.7-0.7-1.1-1c-0.8-0.6-1.9-1.2-2.8-0.7s-1.3,1.5-1.5,2.4c-0.3,1-0.2,2,0.3,2.9c0.7,1.4,2.5,2.5,3.9,1.3
		c0.7-0.6,0.5-1.6,0-2.2c-0.5-0.8-1.2-0.8-2-0.5c0.8-0.3,1.5-0.2,2,0.5s0.6,1.6,0,2.2c-1.4,1.1-3.2,0.1-3.9-1.3
		c-0.5-0.9-0.5-1.9-0.3-2.9c0.2-0.9,0.6-1.9,1.5-2.4c1-0.5,2,0.1,2.8,0.7c0.4,0.3,0.8,0.6,1.1,1c-6.6-13.1-15.6-25.5-27.4-34.9
		C393.4,149.9,393.4,151.3,393.3,152.6L393.3,152.6z"/>
</g>
<g id="Ponies" transform="translate(-99,-105)">
	<path id="path180" inkscape:connector-curvature="0" class="st7" d="M181.7,354.5c-0.6-0.1-1.2-0.3-1.6-0.7c-0.4-0.5-0.5-1.1,0-1.6
		c0.9-0.9,2.5,0.4,3.1,1.1s0.6,1.8,0.3,2.6c-0.9,2-3.2,2.3-4.6,0.6c-1.1-1.4-1.7-3.8-1.1-5.6c0.6-1.6,3-2.5,4.5-2.3
		c1.2,0.1,2.8,0.9,3.6,1.8c1.8,2,0.9,5.7,0.4,8c-0.3,1.3-0.4,2.7-0.5,4.1c-0.1,1.3-0.1,2.6,0.1,3.9"/>
	<path id="path182" inkscape:connector-curvature="0" class="st7" d="M173.1,343.4c-0.7-0.2-2-0.8-1.8-1.7c0.1-0.8,1.1-1.2,1.8-0.8
		c0.4,0.2,0.9,0.8,1.1,1.3c0.3,0.8,0.5,2.8-0.3,3.4c-0.8,0.7-2.2,0.6-3,0.1c-1.7-1.1-3.2-3.3-2.5-5.4c0.4-1,0.9-2.1,1.8-2.7
		c1.4-0.9,3.8-0.4,5.1,0.5c1.4,1,2.3,2.5,2.3,4.3c0,1,0,2.1-0.1,3.1c-0.2,1-0.7,1.9-1,2.8s-0.2,2-0.1,3c0.1,0.8,0.3,1.8,0.9,2.4
		c0.2,0.2,0.3,0.3,0.5,0.5"/>
	<path id="path184" inkscape:connector-curvature="0" class="st7" d="M163.8,332.2c-0.7,0.3-1.4,0.2-1.9-0.5c-0.4-0.6-0.6-1.5,0-2
		c1.3-1,2.9-0.1,3.5,1.2c0.4,0.8,0.5,1.8,0.3,2.7c-0.2,0.8-0.5,1.8-1.4,2.2c-0.9,0.5-1.9-0.1-2.6-0.6c-1-0.7-1.9-1.8-2.2-3
		c-0.2-0.8-0.1-1.6,0-2.4c0-1.2,0.8-2.6,1.9-3.2c1-0.6,2.7-0.7,3.8-0.3c1.1,0.4,2.1,1.5,2.5,2.6c0.6,1.5,0.4,3.2,0.4,4.8
		c0,1.5,0,2.9-0.2,4.4c-0.1,1.2-0.4,2.5,0.3,3.6"/>
	<path id="path186" inkscape:connector-curvature="0" class="st8" d="M153.2,259.7c2.7-14.7,12.8-56,33.4-70.2
		c24.8-17,61.4-11.1,66.3-12.1s14.3-5.9,19.5-10.3c-8.7,12.9-28.8,23.5-40.7,28.1c-11.9,4.6-37.7,13.4-42.3,15.5
		s-25.3,13.2-27.9,36.6C159.1,270.8,151.6,267.5,153.2,259.7L153.2,259.7z"/>
	<path id="path188" inkscape:connector-curvature="0" class="st9" d="M250.7,392c-17.8-18.7-42.6-43.3-65-50.7
		c-22.5-7.5-8.1-17,3.4-10.3C200.6,337.6,244.2,376.6,250.7,392z"/>
	<polygon id="polygon190" class="st9" points="196.2,370.5 201.9,367.3 244.4,416.8 	"/>
	<path id="path192" inkscape:connector-curvature="0" class="st9" d="M99.3,276.2c-4.9,35.3,43.5,86.9,66.7,94.2
		c2.4-0.8-13.9-22.5-10.2-32.7c3.5-2.3,6.7,1.7,8.7,0.5c2.1-1.2-3.8-4-4.8-6.2s-14.7-20.6-12.6-1.2c-3-8.2-14.7-25.6-11.6-4.3
		c-4-15.7-21.8-38.4-14-9C111.5,305.8,104.5,272,99.3,276.2L99.3,276.2z"/>
	<path id="path194" inkscape:connector-curvature="0" class="st9" d="M212.8,224.1c-8.8,4.6-15.3,21.8-16.8,31.7
		c-1.5,9.9-8,20.5-12.9,19.4c-4.9-1-12.1-13.5-13.4-20.5c-1.3-6.9-5.7,2.6-3.9,7.5c1.8,5,6.5,24.5,19.4,24s16.5-32.3,16.8-35.1
		C202.2,248.3,205.6,231.8,212.8,224.1L212.8,224.1z"/>
	<path id="path196" inkscape:connector-curvature="0" class="st9" d="M255.1,188.4c-62.4,18.7-106.4,51.6-106.3,98.4
		c0,24.5,12.9,62.6,41,82.3l12.4,15c0,0-2.8-6-4-11.7c0,0,6.6-3.2,7.4-5.1c0.8-1.6-5.1-5.1-2.2-4.4c9.3,2.4-13.7-11.9-15.4-20.5
		c-0.4-1.9,7.3-12,6.3-18.2s-12.3-15.9-17.5-19c-16.5-9.9-12.5-45.7,2.6-63.5C199.3,218.2,236.8,197.2,255.1,188.4L255.1,188.4z"/>
	<path id="path198" inkscape:connector-curvature="0" class="st9" d="M180.5,329.1c15.2,8,27.2,8.2,32.3,5.4
		c8-4.4-12-25.5-23.7-31.7c5.3,7.1,19.8,20.6,19,25.8c-0.5,3.4-16.3-1-26.3-7.5"/>
	<path id="path200" inkscape:connector-curvature="0" class="st9" d="M197.9,372.2c4.5,2.8,29.9,13.5,32.2,13.5l-2.9-9.3
		c-2.1-0.9-12-8.6-14.4-12c-2.5-3.4-5-8.8-15.2-4.1"/>
	<line id="line202" class="st7" x1="221.3" y1="374.8" x2="227.7" y2="378.3"/>
	<path id="path204" inkscape:connector-curvature="0" class="st8" d="M212.8,372.1l-4.1-5.4l-1.7-0.1c-1.2,1.1-2.5,3-1.5,5.6
		C208,372.9,210.7,372.8,212.8,372.1z"/>
	<path id="path206" inkscape:connector-curvature="0" class="st10" d="M206.9,366.5l-9.4-0.6c2.1,3.4,4.9,5.4,7.9,6.3
		C204.4,369.5,205.8,367.6,206.9,366.5L206.9,366.5z"/>
	<path id="path208" inkscape:connector-curvature="0" class="st8" d="M185.8,362.4c0.1-1.4,0.2-2.7,0.5-4.1c0.5-2.3,1.4-5.9-0.4-8
		c-0.8-0.9-2.4-1.6-3.6-1.8c-1.6-0.2-4,0.7-4.5,2.3c-0.3,0.9-0.3,2,0,3.1l0.1,0.1l-0.1-0.1c0.2,0.9,0.6,1.8,1.2,2.5
		c1.3,1.7,3.7,1.4,4.6-0.6c0.4-0.9,0.3-1.9-0.3-2.6s-2.2-2-3.1-1.1c-0.5,0.4-0.3,1.1,0,1.6c0.4,0.5,1,0.7,1.6,0.7
		c-0.6-0.1-1.2-0.3-1.6-0.7c-0.4-0.5-0.5-1.1,0-1.6c0.9-0.9,2.5,0.4,3.1,1.1s0.6,1.8,0.3,2.6c-0.9,2-3.2,2.3-4.6,0.6
		c-0.5-0.7-0.9-1.5-1.2-2.5c-0.2-0.1-0.3-0.2-0.4-0.4c-0.6-0.6-0.8-1.6-0.9-2.4c-0.1-0.9-0.1-2.1,0.1-3c0.3-1,0.9-1.8,1-2.8
		c0.2-1,0.1-2.1,0.1-3.1c0-1.8-0.9-3.3-2.3-4.3c-1.3-0.9-3.7-1.4-5.1-0.5c-0.9,0.6-1.5,1.7-1.8,2.7c-0.1,0.4-0.2,0.8-0.2,1.2
		c0,0,0,0.1,0.1,0.1c0,0,0-0.1-0.1-0.1c0.1,1.7,1.3,3.3,2.7,4.1c0.8,0.5,2.2,0.6,3-0.1c0.7-0.6,0.6-2.6,0.3-3.4
		c-0.2-0.5-0.7-1-1.1-1.3c-0.7-0.4-1.7,0-1.8,0.8c-0.2,0.9,1.1,1.6,1.8,1.7c-0.7-0.2-2-0.8-1.8-1.7c0.1-0.8,1.1-1.2,1.8-0.8
		c0.4,0.2,0.9,0.8,1.1,1.3c0.3,0.8,0.5,2.8-0.3,3.4c-0.8,0.7-2.2,0.6-3,0.1c-1.3-0.8-2.6-2.5-2.7-4.1c-0.6-1.1-0.3-2.3-0.2-3.5
		c0.1-1.4,0.2-2.9,0.2-4.4c0-1.6,0.2-3.3-0.4-4.8c-0.4-1-1.5-2.2-2.5-2.6c-1.1-0.4-2.8-0.3-3.8,0.3c-1.1,0.6-1.8,1.9-1.9,3.2
		c0,0.7-0.1,1.3,0,2c0.4,0.8,0.8,1.7,1.2,2.5c0.3,0.3,0.7,0.7,1,0.9c0.7,0.5,1.7,1.1,2.6,0.6c0.8-0.4,1.1-1.4,1.4-2.2
		c0.2-0.9,0.2-1.8-0.3-2.7c-0.6-1.2-2.3-2.2-3.5-1.2c-0.6,0.5-0.5,1.4,0,2c0.5,0.7,1.1,0.7,1.9,0.5c-0.7,0.3-1.4,0.2-1.9-0.5
		c-0.4-0.6-0.6-1.5,0-2c1.3-1,2.9-0.1,3.5,1.2c0.4,0.8,0.5,1.8,0.3,2.7c-0.2,0.8-0.5,1.8-1.4,2.2c-0.9,0.5-1.9-0.1-2.6-0.6
		c-0.4-0.3-0.7-0.6-1-0.9c6,12,14.3,23.3,25,31.9C185.7,364.9,185.7,363.7,185.8,362.4L185.8,362.4z"/>
	<path id="path210" inkscape:connector-curvature="0" class="st7" d="M390.1,229.3c0.6,0.1,1.2,0.3,1.6,0.7c0.4,0.5,0.5,1.1,0,1.6
		c-0.9,0.9-2.5-0.4-3.1-1.1s-0.6-1.8-0.3-2.6c0.9-2,3.2-2.3,4.6-0.6c1.1,1.4,1.7,3.9,1.1,5.6c-0.6,1.6-3,2.5-4.5,2.3
		c-1.2-0.1-2.8-0.9-3.6-1.8c-1.8-2-0.9-5.7-0.4-8c0.3-1.3,0.4-2.7,0.5-4.1c0.1-1.3,0.1-2.6-0.1-3.9"/>
	<path id="path212" inkscape:connector-curvature="0" class="st7" d="M398.7,240.4c0.7,0.2,2,0.8,1.8,1.7c-0.1,0.8-1.1,1.2-1.8,0.8
		c-0.4-0.2-0.9-0.8-1.1-1.3c-0.3-0.8-0.5-2.8,0.3-3.4c0.8-0.7,2.2-0.6,3-0.1c1.7,1.1,3.2,3.3,2.5,5.4c-0.4,1-0.9,2.1-1.8,2.7
		c-1.4,0.9-3.8,0.4-5.1-0.5c-1.4-1-2.3-2.5-2.3-4.3c0-1,0-2.1,0.1-3.1c0.2-1,0.8-1.9,1-2.8c0.3-0.9,0.2-2,0.1-3
		c-0.1-0.8-0.3-1.8-0.9-2.4c-0.2-0.2-0.3-0.3-0.5-0.5"/>
	<path id="path214" inkscape:connector-curvature="0" class="st7" d="M408,251.6c0.7-0.3,1.4-0.2,1.9,0.5c0.4,0.6,0.6,1.5,0,2
		c-1.3,1-2.9,0.1-3.5-1.2c-0.4-0.8-0.5-1.8-0.3-2.7c0.2-0.8,0.5-1.8,1.4-2.2c0.9-0.5,1.9,0.1,2.6,0.6c1,0.7,1.9,1.8,2.2,3
		c0.2,0.8,0.1,1.6,0,2.4c0,1.2-0.8,2.6-1.9,3.2c-1,0.6-2.7,0.7-3.8,0.3c-1.1-0.4-2.1-1.5-2.5-2.6c-0.6-1.5-0.4-3.2-0.4-4.8
		c0-1.5,0-2.9,0.2-4.4c0.1-1.2,0.4-2.5-0.3-3.6"/>
	<path id="path216" inkscape:connector-curvature="0" class="st11" d="M418.6,324.2c-2.7,14.7-12.8,56-33.4,70.2
		c-24.8,17-61.4,11.1-66.3,12.1c-4.9,1-14.3,5.9-19.5,10.3c8.7-12.9,28.8-23.5,40.7-28.1c11.9-4.6,37.7-13.4,42.3-15.5
		c4.6-2.1,25.3-13.2,27.9-36.6C412.7,313.1,420.2,316.4,418.6,324.2L418.6,324.2z"/>
	<path id="path218" inkscape:connector-curvature="0" class="st12" d="M321.1,191.9c17.8,18.7,42.6,43.3,65,50.7
		c22.5,7.5,8.1,17-3.4,10.3S327.6,207.2,321.1,191.9z"/>
	<polygon id="polygon220" class="st12" points="375.6,213.4 369.9,216.6 327.4,167 	"/>
	<path id="path222" inkscape:connector-curvature="0" class="st12" d="M472.5,307.6c4.9-35.3-43.5-86.9-66.7-94.2
		c-2.4,0.8,13.9,22.5,10.2,32.7c-3.5,2.3-6.7-1.7-8.7-0.5c-2.1,1.2,3.8,4,4.8,6.2s14.7,20.6,12.6,1.2c3,8.2,14.7,25.6,11.6,4.3
		c4,15.7,21.8,38.4,14,9C460.3,278.1,467.3,311.8,472.5,307.6z"/>
	<path id="path224" inkscape:connector-curvature="0" class="st12" d="M359,359.8c8.8-4.6,15.3-21.8,16.8-31.7
		c1.5-9.9,8-20.5,12.9-19.4c4.9,1,12.1,13.5,13.4,20.5c1.3,6.9,5.7-2.6,3.9-7.5c-1.8-5-6.5-24.5-19.4-24s-16.5,32.3-16.8,35.1
		C369.6,335.5,366.2,352.1,359,359.8z"/>
	<path id="path226" inkscape:connector-curvature="0" class="st12" d="M316.7,395.4c62.4-18.7,106.4-51.6,106.3-98.4
		c0-24.5-12.9-62.6-41-82.3l-12.4-15c0,0,2.8,6,4,11.7c0,0-6.6,3.2-7.4,5.1c-0.8,1.6,5.1,5.1,2.2,4.4c-9.3-2.4,13.7,11.9,15.4,20.5
		c0.4,1.9-7.3,12-6.3,18.2s12.3,15.9,17.5,19c16.5,9.9,12.5,45.7-2.6,63.5C372.5,365.7,335,386.6,316.7,395.4L316.7,395.4z"/>
	<path id="path228" inkscape:connector-curvature="0" class="st12" d="M391.3,254.8c-15.2-8-27.2-8.2-32.3-5.4
		c-8,4.4,12,25.5,23.7,31.7c-5.3-7.1-19.8-20.6-19-25.8c0.5-3.4,16.3,1,26.3,7.5"/>
	<path id="path230" inkscape:connector-curvature="0" class="st12" d="M373.9,211.7c-4.5-2.8-29.9-13.5-32.2-13.5l2.9,9.3
		c2.1,0.9,12,8.6,14.4,12c2.5,3.4,5,8.8,15.2,4.1"/>
	<line id="line232" class="st7" x1="350.2" y1="208.5" x2="343.8" y2="205"/>
	<path id="path234" inkscape:connector-curvature="0" class="st11" d="M359,211.8l4.1,5.4l1.7,0.1c1.2-1.1,2.5-3,1.5-5.6
		C363.8,210.9,361.1,211,359,211.8L359,211.8z"/>
	<path id="path236" inkscape:connector-curvature="0" class="st10" d="M364.9,217.3l9.4,0.6c-2.1-3.4-4.9-5.4-7.9-6.3
		C367.4,214.3,366,216.2,364.9,217.3z"/>
	<path id="path238" inkscape:connector-curvature="0" class="st11" d="M386,221.4c-0.1,1.4-0.2,2.7-0.5,4.1c-0.5,2.3-1.4,5.9,0.4,8
		c0.8,0.9,2.4,1.6,3.6,1.8c1.6,0.2,4-0.7,4.5-2.3c0.3-0.9,0.3-2,0-3.1l-0.1-0.1l0.1,0.1c-0.2-0.9-0.6-1.8-1.2-2.5
		c-1.3-1.7-3.7-1.4-4.6,0.6c-0.4,0.9-0.3,1.9,0.3,2.6c0.6,0.7,2.2,2,3.1,1.1c0.5-0.4,0.3-1.1,0-1.6c-0.4-0.5-1-0.7-1.6-0.7
		c0.6,0.1,1.2,0.3,1.6,0.7c0.4,0.5,0.5,1.1,0,1.6c-0.9,0.9-2.5-0.4-3.1-1.1s-0.6-1.8-0.3-2.6c0.9-2,3.2-2.3,4.6-0.6
		c0.5,0.7,0.9,1.5,1.2,2.5c0.2,0.1,0.3,0.2,0.4,0.4c0.6,0.6,0.8,1.6,0.9,2.4c0.1,0.9,0.1,2.1-0.1,3c-0.3,1-0.9,1.8-1,2.8
		c-0.2,1-0.1,2.1-0.1,3.1c0,1.8,0.9,3.3,2.3,4.3c1.3,0.9,3.7,1.4,5.1,0.5c0.9-0.6,1.5-1.7,1.8-2.7c0.1-0.4,0.2-0.8,0.2-1.2
		c0,0,0-0.1-0.1-0.1c0,0,0,0.1,0.1,0.1c-0.1-1.7-1.3-3.3-2.7-4.1c-0.8-0.5-2.2-0.6-3,0.1c-0.7,0.6-0.6,2.6-0.3,3.4
		c0.2,0.5,0.7,1,1.1,1.3c0.7,0.4,1.7,0,1.8-0.8c0.2-0.9-1.1-1.6-1.8-1.7c0.7,0.2,2,0.8,1.8,1.7c-0.1,0.8-1.1,1.2-1.8,0.8
		c-0.4-0.2-0.9-0.8-1.1-1.3c-0.3-0.8-0.5-2.8,0.3-3.4c0.8-0.7,2.2-0.6,3-0.1c1.3,0.8,2.6,2.5,2.7,4.1c0.6,1.1,0.3,2.3,0.2,3.5
		c-0.1,1.4-0.2,2.9-0.2,4.4c0,1.6-0.2,3.3,0.4,4.8c0.4,1,1.5,2.2,2.5,2.6c1.1,0.4,2.8,0.3,3.8-0.3c1.1-0.6,1.8-1.9,1.9-3.2
		c0-0.7,0.1-1.3,0-2c-0.4-0.8-0.8-1.7-1.2-2.5c-0.3-0.3-0.7-0.7-1-0.9c-0.7-0.5-1.7-1.1-2.6-0.6c-0.8,0.4-1.1,1.4-1.4,2.2
		c-0.2,0.9-0.2,1.8,0.3,2.7c0.6,1.2,2.3,2.2,3.5,1.2c0.6-0.5,0.5-1.4,0-2c-0.5-0.7-1.1-0.7-1.9-0.5c0.7-0.3,1.4-0.2,1.9,0.5
		c0.4,0.6,0.6,1.5,0,2c-1.3,1-2.9,0.1-3.5-1.2c-0.4-0.8-0.5-1.8-0.3-2.7c0.2-0.8,0.5-1.8,1.4-2.2c0.9-0.5,1.9,0.1,2.6,0.6
		c0.4,0.3,0.7,0.6,1,0.9c-6-12-14.3-23.3-25-31.9C386.1,218.9,386.1,220.2,386,221.4L386,221.4z"/>
</g>
</svg>
