<?xml version="1.0" encoding="utf-8"?>
<!-- Generator: Adobe Illustrator 25.3.1, SVG Export Plug-In . SVG Version: 6.00 Build 0)  -->
<svg version="1.1" id="Layer_1" xmlns="http://www.w3.org/2000/svg" xmlns:xlink="http://www.w3.org/1999/xlink" x="0px" y="0px"
	 viewBox="0 0 1012 1012" style="enable-background:new 0 0 1012 1012;" xml:space="preserve">
<circle cx="326.4" cy="380" r="96.4"/>
<g>
	<g>
		<path d="M348.1,785.3c-2.7-1-5.5-0.5-8.2-0.6c-9.8-0.2-19.4-1.4-28.8-4.2c-3.9-1.2-7.7-2.6-10.7-5.7c-3.5-3.5-4.4-7.6-2.6-12.2
			c1.6-4,4-7.6,6.1-11.4c1.7-3,1.4-3.4-2-3.5c-12-0.2-24-0.9-35.7-4.2c-3.3-0.9-6.4-2.2-9.1-4.2c-6.1-4.6-7.4-9.9-3.9-16.7
			c3.2-6.3,6.9-12.4,10.8-18.3c13.6-21,26.8-42.1,38.7-64.1c2.1-3.9,2-4.1-2.4-4.7c-12.9-1.7-25.6-4.4-37.6-9.4
			c-5.5-2.3-10.6-5.2-14.8-9.5c-6.8-7-6.3-14.8,0.9-21.3c8.1-7.2,18.3-9.9,28.3-12.7c16.5-4.6,33.5-6.4,50.5-7.9
			c3-0.3,5.1-2.8,4.9-5.8c-0.1-1.9-1.6-1.9-2.8-2.2c-8.2-2-16.2-4.4-24-7.8c-7.2-3.1-14.2-6.5-20.2-11.7c-2.4-2.1-4.8-4.2-6-7.1
			c-1.1-2.5-2.9-3.4-5.3-4.2c-9-2.9-17.4-6.8-24.2-13.7c-7.6-7.7-7.3-17.4,1-24.5c2.2-1.9,4.6-3.6,6.2-6c3-4.5,2.2-8.4-2.3-11.3
			c-13.9-8.8-26.7-18.9-38.1-30.6c-25.2-25.7-43.1-55.4-50.2-91.1c-0.2-0.9-0.5-1.8-0.7-2.8c-1.8,0.2-2.4,1.7-3.4,2.7
			c-10.1,10.8-21.1,20.4-34.1,27.4c-25.7,13.8-51.5,13.9-77-0.4c-13.4-7.5-25.3-17-34.5-29.6C3.9,337.9-1,317.8,3.8,295.6
			c3.2-14.5,10.6-26.9,18.6-39.8c1.1,3.7,0.5,6.7,0.2,9.7c-1.5,15.5,1.5,29.6,11.9,41.7c8.6,10,20.7,10,29.1-0.2
			c7.2-8.7,10.5-19.1,13.2-29.7c2.7-10.7,4.8-21.5,8.3-32.1c6.4-19.5,15.7-37.4,28.7-53.3c18.5-22.4,41.4-38.5,68.7-48.2
			c3.4-1.2,6.8-2.3,10.8-3.7c-14.4-9.3-28.5-18-42-27.6c0.8-1.3,1.8-1.3,2.7-1.6c26.7-6.9,53.4-14,80.2-20.8
			c10.2-2.6,20.6-5.1,31.3-4.5c12.4,0.7,24.4,3.6,36.2,7.5c11.5,3.7,22.8,8.1,34.6,11.3c9.3,2.5,9.2,2.7,12.2-6.1
			c0.7-1.9,1.3-3.9,2.3-5.6c4.3-7.3,10.8-9.7,20.6-7.5c11.1,2.5,20.3,8.6,28.9,15.6c15.8,13.1,28.8,28.5,38.9,46.4
			c2.7,4.7,7.5,7.4,11.5,10.8c22.1,19.2,41,41.1,56.3,66.1c0.3,0.5,0.6,1,1.7,1.4c-0.4-4.5-0.8-9-1.3-13.5
			c-0.5-4.6-1.2-9.2-1.9-14.2c2.5,0.5,4,2.1,5.5,3.5c10.7,9.6,17.7,21.7,22.7,35c7.1,19,10.6,38.8,12.2,59
			c2.5,30.8,0.4,61.2-6.7,91.2c-4.5,18.9-10.9,37.1-22.1,53.3c-3.3,4.8-7.4,8.8-11.4,12.9c-1.1,1.1-1.8,2.1-1.6,3.7
			c2.6,20.3,6.2,40.3,13.9,59.4c9.5,23.6,24.6,42.7,45.7,57c7.1,4.9,14.5,9.5,21.1,15c1.2,1,2,0.7,3.1-0.2
			c18-15.2,38.4-26.4,60.5-34.3c12.4-4.4,25.2-6.9,38.3-8.2c17.1-1.7,33.8,0,50.2,4.9c14.4,4.2,27.3,11.3,39.2,20.1
			c23.5,17.3,40.1,40.4,54.2,65.6c1.5,2.7,0.7,2.9-1.8,2.8c-4.6-0.3-8.4-2.6-12.7-4.4c11.6,16.3,28.5,26.6,47.7,22
			c5.3-1.3,10.2-3.6,14.9-6.3c10.7-6.3,22.2-9.9,34.7-9.2c12,0.7,23.5,3.7,34.4,8.7c23.4,10.8,43.9,25.7,61.8,44.1
			c0.8,0.8,2.3,1.6,2,2.8c-0.5,1.4-2.2,1.1-3.5,1.2c-9.9,0.8-19.3-1.8-28.7-4.3c-10.7-2.8-21.2-3.7-31.7,1
			c-9.1,4.2-17.3,9.9-24.6,16.8c-6.9,6.5-13.3,13.6-20.7,19.5C885,744,865.5,752,844.5,756.6c-13.7,3-27.6,4.7-41.7,5.2
			c-24.4,0.9-48.4-1.3-72.2-6.6c-16.1-3.5-31.8-8.6-46.8-15.4c-1.1-0.5-2.1-0.9-3.6-1.5c0.9,3.2,1.8,5.9,2.4,8.6
			c0.8,3.5,0.2,4.1-3.3,3.8c-9.5-0.8-18.7-2.9-27.4-7.1c-2.6-1.2-5.2-2.5-7.8-3.8c-1.5-0.8-2.4-0.9-2.6,1.2
			c-0.4,5.7-4.1,8.4-9.2,9.7c-7.5,1.9-15.3,1.7-22.9,2.2c-13.7,0.9-27,2.9-39.2,9.6c-6.5,3.6-12.3,7.9-17.4,13.2
			c-1.5,1.5-3,2.5-5.3,2.5c-25.8,0.4-51.6,1-77.5,0.5c-7-0.1-13.9-0.7-20.8-2.1c-15.6-3.1-20.6-9.9-18.2-25.6
			c1.2-8,2.8-15.9,6.3-23.2c1.1-2.4-0.1-3.2-1.9-4.1c-6.1-2.9-5.3-3.6-7.2,3c-3.6,12.7-7.8,25.2-13.5,37.2
			c-4,8.4-9.7,14.4-19.3,16.2c-4.1,0.8-8.2,1.7-12.4,2.3c-8.9,1.3-17.8,2.5-26.9,2.3c-1.5,0-3.1-0.2-4.6,0.6
			C350.5,785.3,349.3,785.3,348.1,785.3z M329.4,473.3c-1-0.4-2-0.8-3-1.1c-8.3-2.9-15.7-7.3-22-13.3c-16.8-16.1-24.4-36-22.6-59.1
			c1.3-17.1,8.2-31.8,22.1-42.5c20.1-15.5,48.9-13.3,68.4,5c17.4,16.4,25.3,36.6,23.5,60.5c-0.2,3.3-1,6.4-1.5,9.6
			c-0.2,1-1.1,2.4,0.2,2.9c1.6,0.5,1.7-1.3,2.2-2.3c0.8-1.7,1.6-3.5,2.2-5.3c8.6-25.8,5.5-50.4-8-73.8c-4.9-8.4-10.9-16.1-19-21.4
			c-8.6-5.6-18.3-9.6-28.4-12c-24.1-5.7-45.6-0.2-62.1,18.1c-22.1,24.6-26.9,53.7-15.3,84.6c7.6,20.3,21.1,36.2,41.4,45.3
			C314.4,471.5,321.6,473.8,329.4,473.3z M341.5,379.2c0.1-17-8.8-23.6-21.7-19.1c-13.7,4.8-26.6,22.2-27.1,36.7
			c-0.5,16,10.1,23.4,24.4,16.2C332,405.5,339.8,392.7,341.5,379.2z M317.2,428.6c0,4.8,3.2,9,7,9c2.9,0,5.3-2.9,5.4-6.6
			c0.1-4.3-3.4-8.6-7-8.7C319.4,422.3,317.3,424.8,317.2,428.6z"/>
	</g>
</g>
</svg>
