<?xml version="1.0" encoding="utf-8"?>
<!-- Generator: Adobe Illustrator 25.3.1, SVG Export Plug-In . SVG Version: 6.00 Build 0)  -->
<svg version="1.1" id="Layer_1" xmlns="http://www.w3.org/2000/svg" xmlns:xlink="http://www.w3.org/1999/xlink" x="0px" y="0px"
	 viewBox="0 0 1445.2 978.1" style="enable-background:new 0 0 1445.2 978.1;" xml:space="preserve">
<style type="text/css">
	.st0{fill:#FDFDFD;}
	.st1{fill:#F27033;}
	.st2{fill:#BC1F77;}
	.st3{fill:#BC2D7D;}
	.st4{fill:#E8531B;}
	.st5{fill:#E8541C;}
	.st6{fill:#BD3B83;}
	.st7{fill:#F8B664;}
	.st8{fill:#BE5D92;}
	.st9{fill:#F19D4D;}
	.st10{fill:#D8205B;}
	.st11{fill:#F8B05F;}
	.st12{fill:#F19548;}
	.st13{fill:#F37F3D;}
	.st14{fill:#F48844;}
	.st15{fill:#F48441;}
	.st16{fill:#FEFEFE;}
	.st17{fill:#F27234;}
	.st18{fill:#F3813F;}
	.st19{fill:#F48A45;}
	.st20{fill:#F6984F;}
	.st21{fill:#F6984E;}
	.st22{fill:#C4A5CF;}
	.st23{fill:#4D2A66;}
	.st24{fill:#492662;}
	.st25{fill:#5B3872;}
	.st26{fill:#E6CDE3;}
	.st27{fill:#613E78;}
	.st28{fill:#56336E;}
	.st29{fill:#78558D;}
	.st30{fill:#8D6A9F;}
	.st31{fill:#724F87;}
	.st32{fill:#512E6A;}
	.st33{fill:#9470A5;}
	.st34{fill:#9A76AA;}
	.st35{fill:#7E5A92;}
	.st36{fill:#87649A;}
	.st37{fill:#5F3C77;}
	.st38{fill:#69467F;}
	.st39{fill:#835F96;}
	.st40{fill:#A985B7;}
	.st41{fill:#9F7CAF;}
	.st42{fill:#57346F;}
	.st43{fill:#A481B4;}
	.st44{fill:#9A77AB;}
	.st45{fill:#68447E;}
	.st46{fill:#F7F7F7;}
</style>
<path class="st0" d="M-96.9-13.5c-0.7,1.3-1.7,2.3-3,3C-100.4-13-99.4-14-96.9-13.5z"/>
<path class="st1" d="M521.3,33c1.5-4.7,2.9-9.5,4.6-14.2C530.9,5,541-0.2,555.4,3c15.5,3.5,28.5,11.8,40.6,21.6
	c21.7,17.6,39.2,38.8,53.2,62.9c1.3,2.3,2.7,4.6,4,6.8c6.4,6.2,8,15,12,22.5c8.8,21.8,14,44.2,14.2,67.6c0.1,9.3-1.5,18.6-3.5,27.7
	c-0.9,4.1,0,6.9,2.9,9.8c20.3,20.2,34.5,44.3,43.7,71.3c5.3,15.4,7.7,31.3,8.8,47.5c0.7,9.7,3.2,19,4.1,28.6
	c1.7,18.5,3.2,37.1,3.1,55.8c0.2,4.9-0.2,9.7,0,14.6c0.1,12,0,24,0,36c0,8.5,1.1,16.9,1.4,25.4c0.3,4.2,1.5,8.4,0,12.6
	c0.4,14.6,3.3,28.8,6.1,43.1c4.1,20.7,10.6,40.8,20.2,59.7c13,25.6,31.6,46.2,55.2,62.6c10,7,20.5,13.4,29.9,21.2
	c1,0.8,2.3,1.2,3.5,1.8c2.7,1.6,5,3.8,7.5,5.8c2.3,2.5,4.9,4.7,7,7.3c1.2,2,2.9,3.6,4.5,5.1c16,18.8,27.5,39.9,33,64.1
	c0.3,2.2,0.9,4.4,1.3,6.6c3.2,25-1,47.8-19.3,66.5c-2.5,2.5-2.2,3.6,0.6,5.5c12.6,8.7,24.5,18.4,34,30.6c2.3,3.2,4.3,6.6,5.9,10.2
	c0.6,1.5,1.7,2.9,0.5,4.6c1.7,9.6-2.6,15.7-12.6,17.8c-11.6,2.5-23.5,2-35.3,3c-17.4,1.4-34.3,4.4-49.9,12.9
	c-9.5,5.1-17.8,11.7-25.2,19.4c-1.8,1.9-3.8,2.8-6.5,2.8c-30.8,0.2-61.6,0.8-92.4,0.8c-16.9,0-34-0.2-50.5-5
	c-9.2-2.7-17.1-7.1-18.6-17.8c-0.7-5.1-0.4-10.3,0.4-15.4c1.7-11.6,4.1-22.9,9.4-33.5c1-2,0.5-2.9-1.4-3.8
	c-3.3-1.5-6.5-3.3-10.1-5.1c-4.2,14.2-8.1,28.3-13.4,41.9c-4,10.4-8.5,20.6-14.9,29.8c-2.9,4.1-7.1,6.3-11.7,8
	c-14.2,5.1-29.2,6.4-44.1,8c-6.4,0.7-12.9,0.8-19.4,1.2c-5.6,0.5-11.3,0.5-16.9,0c-14.6-0.2-29-1.2-43.1-5.4
	c-6.9-2.1-13.3-4.7-17.8-10.4c-4.7-6-3.5-12.3-0.2-18.4c2.9-5.4,6.1-10.5,9.2-15.7c0.5-0.9,0-2.1,0.6-3c0.8-2.1,3.8-3.9,2.7-5.9
	c-1.1-2-4.2-0.8-6.5-0.9c-4.1-0.2-8.2,0.1-12.4-0.1c-1.8-0.1-4.1,0.4-4.7-2.3c1.6-1.6,3.7-1.3,5.7-1.3c5.7-0.1,11.3-0.1,17,0
	c3.3,0.1,5.7-1.2,7.4-4.1c16.2-26.4,33.1-52.4,47.7-79.7c7.6-14.3,14.8-28.7,21.2-43.5c1.2-2.7,1.7-5.2,0.7-8.2
	c-1.2-3.5-3.3-4.9-7.1-4.7c-19.9,1.4-39.9,1.5-59.8,0c-0.8-0.1-1.7,0-2.5-0.1c-4-0.9-8-0.5-11.9-0.3c0.1-0.9,1.2-2.2-1-2.3
	c-11.5-0.7-22.8-3.3-33.9-6.1c-12.7-3.2-25.3-7.1-36.2-14.7c-6.4-4.4-12-9.7-13.3-17.9c-0.3-1.6-0.4-3.3,0.1-4.9
	c2.1-10.4,9.8-15.8,18.5-19.9c18.4-8.6,38.1-12.9,58-16.1c7.9-1.2,15.7-2.2,23.6-3.3c1.7-0.7,3.6,0.2,5.3-0.7
	c1.9-0.1,3.8-0.2,5.7-0.3c2.3-0.8,4.9,0.3,7.2-0.7c1.5,0.7,2.6-0.4,3.7-1.1c3.5-0.6,7.1,0.2,10.5-1.3c1.1-0.2,2.7,1.6,3.3-0.3
	c0.6-1.8-0.4-3.4-2.4-4.1c-2.6-1.6-6-1-8.3-3.2c-21.2-4.8-41.8-11.2-60.2-23.2c-6.4-4.1-12-9.2-15.3-16.3c-0.9-1.9-2.2-3-4.3-3.7
	c-9.9-3.4-19.8-6.6-28.2-13c-5.2-4-9.9-8.7-13.7-14.1c-1.4-2-0.8-4.5-1.5-6.7c-0.5-1.6-0.5-3.3,0-4.9c1.4-7.6,5.7-13.4,11.8-17.6
	c6.1-4.1,8.5-9.4,7.6-16.5c-0.2-1.7-1.3-2.3-2.6-3.2c-9.5-6.5-19.4-12.4-28.2-19.8c-13.6-11.3-26.6-23-38.3-36.3
	c-12.2-13.9-22.8-28.8-32.1-44.5c-8.2-13.8-14.6-28.5-19.5-43.9c-3.2-10.2-6.5-20.4-7.5-31.1c-0.5-5.2,4.3-7.3,6.5-10.8
	c0.8-1.2,1.7-3,3.9-2.1c1.8,4.5,1.7,9.5,2.6,14.2c7,36.5,22.8,68.8,45.7,97.7c19.6,24.8,42.2,46.6,66.8,66.4
	c5.1,4.1,10,8.6,11.5,15.3c2,8.7-1.4,15.7-7.9,21.3c-2.4,2.1-4.8,4.1-6.6,6.7c-4,5.8-3.7,10,1,15.2c7,7.8,16.1,12.4,25.8,15.7
	c15.1,5.2,30.6,7.7,46.6,8c12.6,0.3,25.7-13.6,27.1-27.1c0.3-2.6-1.1-4-3.3-4.9c-2.5-1-5.1-1.6-7.5-2.6c-2.1-0.9-2.6-2.4-0.5-3.5
	c6.7-3.4,22.9-2.7,26.8,7.2c1.1,2.7,1.3,5.5,0.7,8.3c-0.3,1.3-1.1,3.3-2.2,3c-5.5-1.6-4.9,3.1-6.2,5.7c-4,6.9-8.4,13.7-15,18.4
	c-2.2,1.6,0.1,4.5-2.4,5.6c-6.9,1.2-13.9,1.8-20.9,1.6s-13.9-1.1-21.4-2.1c7,6.1,14.5,10.5,22.5,14.1c22.4,10.3,46.2,16.1,70.2,21.3
	c19.1,4.1,38.3,7.4,57.5,10.5c2.1,0.3,5.9-0.2,5.6,2.6c-0.2,2.3-3.9,1.5-6.1,1.7c-19.2,1.7-38.5,2.3-57.8,3.8
	c-24.7,2-49.4,4.3-73.9,8.2c-12.7,2-25.2,4.9-37.6,8.1c-9.3,2.4-17.8,6.5-26,11.4c-9.6,5.7-9.8,13.8-0.7,20.1
	c10.6,7.3,22.5,11.6,34.8,14.6c20.4,5,41.2,7.5,62.3,8.3c10.7,0.4,21.3,1.1,31.9,0.7c25.6-1,51.2-1.8,76.6-5.4
	c5.3-0.7,10.6-1.2,15.9-1.9c1.3-0.2,3-0.4,3.7,0.8c0.9,1.6-1,2.1-1.8,3c-10.2,11.3-18.7,23.8-24.8,37.8c-0.7,1.7-1.2,3.5-1.4,5.3
	c-1.5,10.8,1.9,15.8,12.4,18.8c9.3,2.7,18.6,1.8,27.7,0.1c33.5-6.2,62.7-20.9,87.3-44.5c1.7-1.6,3.1-3.5,5.6-4
	c0.9,0,1.6,0.4,1.9,1.3c0.3,2.4-1.2,4-2.6,5.7c-18.5,21.6-41.4,36.9-67.9,46.8c-4.1,1.5-6.2,3.6-7,8c-2.3,12.3-5.2,24.4-8.2,36.6
	c-1.2,4.8,6.8,12.2,11.6,10.6c2.2-0.7,3.1-2.9,4.4-4.7c12.9-17.9,30-29.4,51.6-34.3c3.6-0.8,7.3-0.8,10.9-1.2
	c3.7-0.4,4.5-1.8,3.6-5.6c-5.2-20.9-1.6-40.4,11.4-57.7c9.6-12.7,22.4-20.6,37.9-24.4c9.9-2.5,20-3.4,30.2-2.9c1,0,2,0.1,3,0.4
	c0.8,0.3,1.7,0.6,1.7,1.5s-0.6,1.5-1.4,1.9c-1.2,0.7-2.6,0.7-3.9,0.9c-19,3.3-36.8,9.4-51.2,23.1c-10.6,10-16.9,22.1-17.3,37
	c-0.2,7,0.1,13.9,2.5,20.7c1.4,4.1,3.6,6.3,7.8,7.2c16.4,3.7,30.2,12,42,23.9c0.5,0.5,1,0.9,1.4,1.4c1,1.3,2.9,2.6,1.6,4.2
	c-1.2,1.6-3.1,0.3-4.6-0.4c-10.2-5-20.2-10.3-31.1-13.6c-9.6-2.9-19.2-5.9-29.3-5.5c-23.3,0.9-41.9,10.7-55.9,29.3
	c-10.4,13.9-16.8,29.4-19,46.7c-0.4,3.2-0.4,6.3-0.4,9.5c0,8.1,2.1,10.9,9.9,13.5c5.6,1.8,11.4,2.7,17.2,3.1
	c7.5,0.5,14.9,1.5,22.4,1.3c11.3-0.3,22.7-0.3,34,0c20.5,0.5,40.9-1.5,61.4-1.1c3,0.1,5.5-0.8,7.7-2.9
	c19.6-18.6,43.4-27.8,69.9-31.2c12.7-1.6,25.6-1.3,38.3-2.9c1.5-0.2,3-0.4,4.4-0.9c3.2-1,4.1-3.1,3-6.2c-1.3-3.9-3.8-7.1-6.5-10
	c-9.4-10.2-19.6-19.4-31.4-27c-3.9-2.5-7.1-2.7-11.1-0.5c-6.1,3.4-12.5,6.4-19.6,6.9c-1.1-0.3-2.1-0.6-2.2-2c2-3.5,5.7-4.9,9-6.9
	c12.3-7.5,22.6-17.1,30.1-29.4c9.2-15,11.3-31.4,8.3-48.6c-4.4-25.8-16.6-47.6-34-66.7c-10.3-11.3-22.3-20.5-35-28.8
	c-14.7-9.6-28.8-19.9-40.8-32.8c-16-17.3-28.4-37-36.8-59c-11.7-30.7-17.8-62.7-20.9-95.3c-3.6-37.7-2-75.5-3.2-113.2
	c-1.1-36.5-7.6-72.1-24.7-105.1c-8.3-16-16.7-31.9-25.9-47.3c-1.4-2.4-2.9-4.8-5.1-7.5c-1.5,3.3-2.8,6.1-4.2,8.9
	c-0.7,1.3-1.4,3.2-3.1,2.7c-2-0.6-1.4-2.7-1.1-4.3c0.6-2.9,1.3-5.8,1.9-8.8c6.9-38,4.8-75.2-9.5-111.4C640,91,620.5,63.4,594.4,40.4
	c-7.6-6.6-15.5-12.6-24.1-17.7c-5.3-3.2-11-5.5-17.1-6.8c-7.9-1.7-12.3,0.6-15.5,8c-3.2,7.6-4.2,15.8-5,23.9
	c-2.2,22.3-0.8,44.5,0.6,66.8c0.5,8.1,1.7,16.2,1.2,24.4c-0.2,1.3-0.4,2.7-2,3.2c-2.1-1-2.7-3-2.9-4.9c-0.7-5.1-3.4-7.5-8.4-7.8
	c-1-0.1-1.9-0.5-2.7-1.1c-1.1-2.3,0.9-3.1,2.2-3.7c4.8-2,5.1-5.4,3.6-9.7c-0.5-1.4-0.8-2.8-1.2-4.3C519,89,516.4,67.1,518.9,45
	C519.8,40.8,519,36.6,521.3,33z"/>
<path class="st2" d="M281.9,364.4c-3.3,4.3-7.6,8-9.9,13c-1.8-0.3-2.7,1.2-3.6,2.3c-15.7,18.6-34.5,33.2-56.3,43.9
	c-16.9,8.4-34.9,11.5-53.7,10.7c-2-1-4.2,0.1-6.3-0.7c-20.8-3.2-38.9-12.2-55.9-24.6c-17.7-12.9-32-28.3-41.8-47.9
	c-5.3-10.6-8.5-21.9-9.5-33.7c-0.7-2.7,0.3-5.6-0.7-8.3C43.4,289.2,56.6,264.3,73,239c0,3.9,0,6.5,0,9c-1,2.4,0.1,5-0.7,7.4
	c-1.8,17.9,1.5,34.6,11.7,49.7c6.3,9.4,14.1,16.8,26.5,16.6c9.8-0.2,15.8-6.9,21.1-13.7c9.3-11.9,13.9-26.1,16.8-40.6
	c7.5-38,20.2-74,42.6-106.1c8.9-12.8,20-23.8,31.3-34.4c18-16.9,39-29.2,61.7-38.6c8.8-2.6,17-6.8,27-8.9
	C290.4,66.3,270.4,54,250.9,40c36.9-9.6,73.1-19.2,109.4-28.5c14.2-3.6,28.4-7.4,43.2-7.6c23.6-0.3,45.6,6.6,67.5,14.3
	c16.5,5.7,33,11.6,50.2,14.8c0,3.5-0.2,7-1.3,10.4c-14.9,3.4-30.1,5.9-44.9,9.9c-25.8,7-50.9,16-74.4,28.9
	c-41.6,23.1-74.4,55.5-97.3,97.7c-11.1,20.4-19.7,41.9-27.4,63.7c-11,30.9-20.2,62.5-33.5,92.5c-8.7,19.7-18.8,38.7-33.6,54.7
	c-10.1,11-21.8,20.1-35,27.1c-3.6,1.9-7,4.6-9.9,5.3c24.5,0.2,46.9-9.2,67.2-24.1c15.3-11.2,28.1-24.9,40-39.6
	c17-20.9,30.6-44,43.2-67.7c1.7-3.2,2-6.4,1.8-10.1c-0.6-15-0.7-29.9,0.2-44.9c0.9-15.8,2.9-31.5,5.5-47.1c0.8-4.9,1.8-9.8,3-14.7
	c0.2-0.9,0.4-2.2,1.6-2.3c1.5-0.1,1.6,1.4,1.8,2.5c0.4,3.2,0.4,6.3,0.1,9.5c-1.6,17.4-2.4,34.9-1.8,52.4c0.7,22.1,2.2,44.2,4.5,66.2
	c3.2,30.2,8.7,59.9,15.1,89.5c7.7-12,15.1-24.2,21.5-37c7.1-14.5,12.2-29.5,15.4-45.3c5.8-28.7,13.8-56.7,27.1-82.9
	c11-21.8,24.9-41.7,41.2-59.9c19.1-21.3,41-39,65.6-53.3c2.3-1.3,4.4-3,7.3-3c0.3,0.6,0.7,1.1,0.8,1.8c2,8.2,2,8.2-5,12.8
	c-0.7,0.4-1.3,1-2,1.4c-1,2.3-3.3,3.3-5.2,4.5c-33.5,21.8-60.8,49.8-81.5,83.9c-16,26.4-26.9,55-32.9,85.4
	c-4.2,21.3-10,42.2-19.7,61.7c-6.6,13.1-14.4,25.5-22.2,37.9c-3.2,5.1-6.4,10.1-9.7,15.2c-1.4,2.2-2.2,5.8-5.2,5.3
	c-2.7-0.4-2.5-4-3.1-6.3c-6.6-26.7-12.6-53.5-16.6-80.7c-1.1-7.7-2.1-15.5-3.2-23.7c-9,16.8-19.1,32.4-30.2,47.2
	C286.5,360.2,285.1,363.2,281.9,364.4z"/>
<path class="st2" d="M930.1,908.4c-1.5-5.2-4.5-9.6-7.3-14.1c2.8-1.7,4.8,0.5,6.8,1.7c12.3,7.5,25,13.9,39.1,17.3
	c1.5,0.3,2.9,0.7,4.4,0.8c0.3,0,0.6-0.1,1.2-0.7c-1.6-3.7-3.7-7.1-6.2-10.4c-5.8-7.7-11.4-15.6-17-23.4c-1-1.4-2-2.7-2.8-4.1
	c-0.9-1.5-2.8-3.3-1.1-4.8c1.6-1.5,3.4,0.5,4.8,1.5c3.7,2.8,7.4,5.6,10.9,8.7c15.9,14,34.5,23,54.4,29.9
	c27.3,9.5,55.5,15.2,84.3,18.3c20.6,2.2,41.3,2.7,61.8,1.6c35.2-2,69.3-9.2,100.6-26.4c10.2-5.6,19.6-12.5,28.3-20.4
	c11.3-10.3,21.6-21.7,33.9-31c10.9-8.2,22.4-14.9,35.6-18.6c11.6-3.3,23.1-2.7,34.5,0.3c7.4,2,14.8,3.8,22.3,5.4
	c-6.9-6.6-14.6-12.2-22.2-17.9c-1.6-1.2-3.4-2-5.5-2.3c-16.5-1.8-32.9-1.3-49.1,2.4c-17.5,4-32,13.7-45.4,25.2
	c-13.5,11.6-27.2,23.1-43.2,31.3c-18.4,9.5-38,14.9-58.5,17.6c-24.3,3.2-48.5,4-72.5-1.7c-22-5.2-42.7-14-62.3-25.1
	c-21.9-12.4-42.7-26.6-63.7-40.4c-15.6-10.3-31.3-20.4-48.6-27.6c-11.6-4.8-23.5-8.6-36.2-8.9c-1.5,0-3-0.1-4.1-1.3
	c-0.2-2.3-1.5-4.5-1.1-6.9c3-2.2,6.4-1.3,9.6-0.9c21.9,2.3,41.3,11.1,60,22c24,14.1,46.8,30,70.3,44.9c17.5,11.1,35.4,21.3,55,28.2
	c17.6,6.2,35.6,10.4,54.6,10.5c23.9,0.2,47.2-2.3,70-9.2c21-6.3,38.8-18,55.4-32c9.8-8.3,19.5-16.7,30.5-23.3
	c15.4-9.2,31.9-14.1,49.8-14.5c5.4-0.1,10.9,0,16.4-0.4c-10.2-6.4-20.6-12.1-31.8-16.3c-5.5-2-11.3-0.1-16.8,0.7
	c-19.1,2.7-36.6,10-52.7,20.5c-6.7,4.4-13.3,8.8-20.3,12.8c-13.7,7.9-28.5,11.8-44.3,12.3c-19.9,0.6-39.2-1.9-57.9-8.7
	c-16.3-5.9-30.3-15.1-42.8-27c-15.4-14.6-27.2-31.9-39.2-49.1c-9.9-14.2-20.2-28.1-32.9-40c-15-14.1-32.9-21.1-53.3-22.1
	c-27.6-1.3-53.8,5.5-79.5,14.9c-9.7,3.6-19.3,7.4-28.6,11.8c-1.5,0.7-3,1.6-4.8,0.9c-1.8-1.3-3.4-2.7-4.2-4.9c0.1-2.6,2.3-3.1,4-3.8
	c29.5-13.4,59.8-24.8,92.3-28.2c36.8-3.8,67.9,7.7,92.1,36.4c14.5,17.2,26.5,36.4,40.1,54.2c10.4,13.5,21.9,26,35.9,35.9
	c14.9,10.5,31.6,16.3,49.5,18.8c16.5,2.3,33.1,3.2,49.5-1.3c10.5-2.8,19.8-7.9,28.7-13.8c10.9-7.1,21.8-14.2,33.7-19.6
	c9.4-4.2,19.2-7.6,28.2-8.1c-8.5-1.7-18.5-1.8-28.4-1c-12.3,1-23,6.5-33.4,12.6c-11.4,6.6-23.7,10.1-36.7,9.8
	c-15-0.3-28.1-6.5-39.9-15.3c-7.7-5.7-14.1-12.8-20-20.2c-7.4-9.2-13.9-19.1-21-28.6c-1-1.4-2.6-3.2-1.1-4.9
	c1.3-1.4,3.2-0.1,4.6,0.6c7.9,3.9,15.8,7.9,24.4,12.2c-7.8-12-15.6-23-24.5-33.3c-10.6-12.3-21.9-23.7-35.1-33.3
	c-25.6-18.6-53.7-30.4-85.5-33c-35.6-3-69.1,4.5-101.5,18.8c-21.2,9.3-40.9,20.9-58.6,35.9c-1.3,1.1-2.6,2.1-4.4,2.3
	c-2.3-2.1-5.6-3.3-6.8-6.6c12.7-12.2,27.5-21.3,42.7-29.9c20.9-11.7,42.9-20.7,66.2-26c6.9-1.6,14-2.6,21-3.9
	c1.7-0.8,3.6,0.1,5.3-0.7c1.6-0.1,3.1-0.2,4.7-0.3c2-0.8,4.3,0.2,6.3-0.7c6.5,0,12.9,0,19.4,0c2.3,1,4.9-0.1,7.2,0.7
	c36.4,3.9,68.6,17.6,97,40.8c22.9,18.7,40.9,41.4,56.3,66.3c4.3,7,8.4,14.1,12.8,21.5c-8.5,2.4-14.6-3.4-21.9-4.9
	c13.3,15.6,26.9,30.6,49.6,31.6c2.5,0.7,5.1,0.7,7.6,0c8.4,0.6,16.2-2.1,23.1-6.2c13.1-7.8,26.6-13.6,41.6-16.1
	c6-0.6,11.9-0.5,17.9-0.1c25.3,2.6,47.9,12.7,69.3,25.6c20,12.1,38.3,26.5,55.2,42.7c2.6,2.5,4.2,5.9,7.5,7.8
	c-0.3,2.5-2.2,1.2-3.4,1.4c-1.9,0.3-4-0.3-5.9,0.5c-1.7-0.5-3.5-0.5-5.2,0c-1.7-0.8-3.6,0-5.4-0.7c-13.2-1.3-25.7-6.3-38.8-8.2
	c-3.3-1.1-6.8,0.1-10.2-0.8c-15.4,0.6-28.1,7.9-40.2,16.5c-8.3,5.9-16,12.5-22.9,19.9c-27.3,29.8-61.4,46.9-100.5,55.4
	c-32.3,7-64.9,8.4-97.8,6.1c-39-2.6-76.7-10.5-113-25.2c-5.6-2.3-11.2-4.8-17.7-7.7c3,6.3,4.9,11.9,5.4,18.2
	c-14.5-0.1-28.1-3.1-41.1-9.1C941.4,914.1,935.8,911.2,930.1,908.4z"/>
<path class="st3" d="M740,513.6c-1.3-3.9-1.1-8-1.1-12.1c0.2-1.2,0.8-2.2,1.6-3c17.4-17.9,26-40.4,33.1-63.7
	c7.3-24,11.2-48.6,13.2-73.6c0.9-12,1.7-24,1.6-35.9c-0.4-32.7-3.6-65.1-13.2-96.6c-1.7-5.7-4.1-11.2-5.5-16.3
	c1.9,10.6,2.5,22.1,2.7,33.5c0.6,40.2-3,80.2-10.3,119.7c-4.1,22.3-8.7,44.5-18.5,65.2c-1.5,3.3-2.2,7.4-6.5,8.8c0-5,0-10,0-15
	c7.9-26.4,15.3-53,18.9-80.4c2.4-18.5,4.3-37,6-55.5c0.9-2.9,0.6-5.8,0.5-8.7c0-14.8-0.1-29.6,0-44.4c0.2-2.6,0.4-5.2-0.4-7.8
	c-0.9-11.2-3.5-22.2-4.5-33.4c-0.1-1-0.6-1.8-0.6-2c0.1,0.2,0.4,1.2,0.6,2.2c1.8,14.7,0.6,29.2-3,43.5c-0.3,1.1-0.5,2.3-1,3.3
	s-0.8,2.5-2.2,2.4c-1.6-0.1-2.4-1.5-2.3-2.8c0.6-19-11.5-32.6-20.5-47.3c-16.8-27.5-37.6-51.4-61.1-73c-1.4-1.3-2.2-2.9-3.6-4.1
	c-3.6-7.4-7.1-14.8-10.7-22.1c3.7,0.9,5.7,4.2,8.4,6.3c2.8,2.2,5.4,4.7,8.4,6.7c6,5.9,12.1,11.6,18,17.6
	c17.4,17.5,33.1,36.4,46.8,56.9c3.9,5.8,7.4,11.8,11.2,17.7c2.6-0.2,1.3-1.9,1.2-3.1c-0.1-0.7-0.3-1.4-0.4-2.1
	c-0.6-2.2-0.2-4.4-0.3-6.5c-0.3-1.8,0.7-3.7-0.7-5.4c-1.1-7-2.3-14-3.3-21c-0.3-2,0.7-1.9,2.2-0.9c6.2,4.3,11.5,9.6,16,15.5
	c16.4,21.5,24.8,46.5,30.4,72.7c2.7,12.5,4.5,25,5.9,37.6c1.2,2.2-0.2,4.7,0.8,7c0.1,0.4,0.2,0.7,0.4,1.1c0.6,2.2,0.2,4.5,0.3,6.7
	c0.2,2.7-0.4,5.5,0.3,8.2c0.1,0.7,0.3,1.4,0.4,2.1c0.6,4.6,0.2,9.2,0.3,13.8c-0.5,0.8-0.5,1.5,0,2.3c-0.1,5.6,0.4,11.2-0.3,16.8
	c-0.1,0.4-0.2,0.7-0.3,1.1c-0.8,3-0.2,6-0.4,9.1c-0.1,1.9,0.3,3.9-0.3,5.8c-0.1,0.4-0.2,0.7-0.4,1.1c-1,2.2,0.4,4.8-0.8,7
	c-1.1,14.2-3.2,28.2-6.2,42.1c-5.3,24.7-12.7,48.7-24.9,71c-6.2,11.2-13.6,21.6-23,30.4C742.1,512.8,741.3,513.6,740,513.6z"/>
<path class="st4" d="M463.3,769.4c3.6-3.9,7.8-0.9,11.8-1c0.9,2.6-0.8,4.5-1.9,6.5c-11.7,22.1-24.3,43.6-37.7,64.7
	c-10.3,16.3-21,32.4-30.6,49.2c-5.1,8.8-3.8,12.4,6.1,15.8c9.5,3.3,19.4,4.4,29.4,5.4c1.6,0.2,3.4-0.2,4.6,1.3
	c6.3,2,12.7,0.4,19,0.9c2.4,0.2,5.9-1.2,6.9,0.7c1.2,2.3-2,4.5-3.2,6.8c-0.4,0.7-1.2,1.1-1.8,1.6c-6.9,0.7-13.9,0.6-20.8,0.1
	c-12.2-0.3-24.4-1.8-36-5.5c-6.3-2-12.9-4.4-16.8-10.9c-2.6-4.4-2.8-8.6-1.2-13.2c3.5-9.7,9.2-18.1,14.7-26.7
	c13.9-21.8,27.7-43.6,40.8-65.8C452.4,789.6,457.7,779.4,463.3,769.4z"/>
<path class="st5" d="M504.1,672.4c3.2,0.5,6.8-0.3,9,3c1.2,2,0.4,3.5-1.2,4.9c-3.3,3.3-7.1,2.5-10.9,1
	C502,678.4,503.1,675.4,504.1,672.4z"/>
<path class="st0" d="M445.1,921.5c6.9,0,13.9-0.1,20.8-0.1c0.2,0.9,0,1.6-0.8,2.1c-2.7-2.3-6-0.7-9-1.1
	C452.5,921.8,448.7,923.3,445.1,921.5z"/>
<path class="st0" d="M1311.9,774.1c-6,0-11.9,0-17.9,0.1C1299.9,772.8,1305.9,772.9,1311.9,774.1z"/>
<path class="st0" d="M517.1,973.5c5.6,0,11.3,0,16.9,0C528.4,974.9,522.7,974.8,517.1,973.5z"/>
<path class="st0" d="M799.2,344.4c0.1-5.6,0.2-11.2,0.3-16.8C800.2,333.2,800.6,338.8,799.2,344.4z"/>
<path class="st0" d="M799.5,325.3c-0.1-4.6-0.2-9.2-0.3-13.8C800.7,316.1,800.2,320.7,799.5,325.3z"/>
<path class="st0" d="M1434.5,852.2c2.9-1.7,6.6,0.5,9.4-1.9c1,0.6,2.4,1.6,0.1,1.9C1440.8,852.6,1437.7,852.3,1434.5,852.2z"/>
<path class="st0" d="M1375,842.5c3.4,0,6.8-0.4,10.2,0.8C1381.7,843,1378.2,844.2,1375,842.5z"/>
<path class="st6" d="M798.2,354.7c0-3.1-0.9-6.3,0.7-9.3c0,2.9,0,5.8,0.1,8.7C798.8,354.5,798.6,354.7,798.2,354.7z"/>
<path class="st0" d="M44.2,319.1c1,2.7,0.6,5.5,0.7,8.3C43.3,324.7,44.4,321.9,44.2,319.1z"/>
<path class="st6" d="M798.8,309.4c-1.6-2.7-0.6-5.5-0.6-8.3c0.4,0,0.6,0.3,0.7,0.6C798.9,304.3,798.8,306.9,798.8,309.4z"/>
<path class="st6" d="M747.2,196.5c1.1,1,0.8,2.3,0.8,3.6c0,0.7,0.3,1.8-1,1.5c-0.9-0.2-0.9-1.2-1-2
	C747.6,199,746.8,197.6,747.2,196.5z"/>
<path class="st0" d="M497.3,682.5c-2.3,1-4.8,0.8-7.2,0.7C492.4,681.6,494.9,682.6,497.3,682.5z"/>
<path class="st6" d="M797,368.5c0.3-2.3-0.8-4.8,0.8-7C797.9,363.8,798.4,366.3,797,368.5z"/>
<path class="st0" d="M72.3,255.4c-0.1-2.5-0.4-5,0.7-7.4C72.8,250.5,73.9,253.1,72.3,255.4z"/>
<path class="st0" d="M746.9,187.8c0,2.2,0,4.4-0.1,6.6c-1.5-2.3-0.6-4.8-0.7-7.2C746.6,187.2,746.8,187.4,746.9,187.8z"/>
<path class="st0" d="M1229.3,796.4c-2.5,0.9-5.1,1.2-7.6,0C1224.2,796.4,1226.8,796.4,1229.3,796.4z"/>
<path class="st0" d="M1027.9,641.2c-2.4,0.1-4.9,0.3-7.2-0.7C1023.1,640.7,1025.7,639.6,1027.9,641.2z"/>
<path class="st6" d="M797.9,293.4c-1.6-2.2-0.6-4.7-0.8-7C798.3,288.7,797.9,291.1,797.9,293.4z"/>
<path class="st0" d="M798.9,301.7c-0.2-0.2-0.5-0.4-0.7-0.6c0-2.2,0-4.4,0-6.6C799.8,296.8,798.7,299.3,798.9,301.7z"/>
<path class="st0" d="M152.1,433.6c2.1-0.1,4.3-0.3,6.3,0.7C156.3,434.2,154.1,435.1,152.1,433.6z"/>
<path class="st0" d="M1001.3,640.5c-2,0.9-4.2,0.9-6.3,0.7C997,639.7,999.2,640.6,1001.3,640.5z"/>
<path class="st0" d="M798.2,354.7c0.2-0.2,0.5-0.4,0.7-0.6c-0.1,2.1,0.8,4.3-0.7,6.2C798.2,358.5,798.2,356.6,798.2,354.7z"/>
<path class="st0" d="M378.9,723.4c0,1.6-0.1,3.3-0.1,4.9C377.7,726.6,377.6,725,378.9,723.4z"/>
<path class="st0" d="M484.4,683.5c-1.7,1-3.5,0.8-5.3,0.7C480.7,682.8,482.6,683.6,484.4,683.5z"/>
<path class="st0" d="M990.3,641.5c-1.7,1-3.5,0.8-5.3,0.7C986.6,640.8,988.5,641.6,990.3,641.5z"/>
<path class="st6" d="M746.9,187.8c-0.2-0.2-0.5-0.4-0.7-0.6c-0.1-1.6-0.2-3.1-0.3-4.7C747.8,184,746.8,186,746.9,187.8z"/>
<path class="st0" d="M380.9,590.4c0,1.6,0,3.3,0,4.9C379.7,593.7,379.6,592.1,380.9,590.4z"/>
<path class="st0" d="M1424,851.5c1.8-0.1,3.7-0.2,5.4,0.7C1427.5,852.1,1425.6,852.9,1424,851.5z"/>
<path class="st7" d="M281.9,364.4c11.2-14.9,21.9-30.1,31.1-46.4c2-3.6,4-7.2,6.6-11.9c4,39.7,12.1,77.4,21.9,115.8
	c5.1-8,9.7-15.3,14.3-22.5c12.2-18.9,23.7-38.2,31.2-59.6c5.9-16.7,8.7-34.1,13-51.2c9.8-39.4,27.3-74.9,53.6-105.9
	c17.3-20.5,37.1-38.2,59.7-52.6c1.5-1,3.2-1.8,4.8-2.7c2.4,0.4,4.9,1,7.3,1.1c2.4,0.1,3.5,1.3,4,3.5c0.8,3.2,1.8,6.4,2.7,9.5
	c0.9,0.8,1.2,1.9,1.3,2.6c-0.8-1.6,0.9-3.7-0.3-5.6c-1.1-25.7-4-51.4-2.9-77.2c0.6-13.2,1-26.6,6.4-39.1c3.1-7.2,8.4-9.9,16.3-8.2
	c12.9,2.8,23.6,9.8,33.7,17.8c31.4,24.8,54.1,56,68.5,93.4c10.9,28.2,13.4,57.5,11.7,87.2c-0.6,10.7-2.6,21.4-5.5,31.8
	c-0.2,0.8-0.2,1.6,0.7,2.8c2.1-4.5,4.1-9,6.4-13.8c5.2,6.2,8.8,13.2,12.7,20.1c12.8,22.8,26,45.4,33.5,70.6
	c4.7,15.8,7.3,32,9.5,48.3c3.1,22.7,2,45.5,1.9,68.3c-0.1,20.5,0.6,40.9,2.2,61.3c2.9,36,9,71.4,22.8,105.1
	c13,32,33.4,58.4,61.7,78.5c17.3,12.3,35.7,23.2,50.1,39.3c17.5,19.7,29.9,41.9,34,68.1c4.9,31.4-7.9,55.3-32.8,73.5
	c-5.1,3.7-10.7,6.8-16,10.1c-0.4,0.9-1.7,0.8-1.9,1.9c1.1-1.5,2.9,0.4,4-0.8c7.6-1.4,14.6-4.6,21.3-8.3c2.6-1.5,4.7-1.6,7.3,0
	c14.7,9.2,27.6,20.3,38.3,33.8c0.7,0.9,1.3,2,1.8,3c3.7,7.2,1.9,10.6-6.1,11.3c-10.2,0.9-20.5,1.3-30.8,2.1
	c-29.8,2.3-57,11-78.9,32.5c-1.8,1.8-3.6,2.6-6.1,2.6c-34.6,0.7-69.3,1.3-103.9,0.7c-10.6-0.2-21.2-1-31.5-3.7
	c-10-2.6-13-5.9-12.4-16.1c2-34.5,15.7-62.4,47.3-79c16.9-8.9,35-8.9,53.3-3.4c14.1,4.3,27.3,10.5,40.6,17.5
	c-2.7-5-11.6-13-18.9-17.5c-9.1-5.6-18.8-10-29.5-11.7c-1.8-0.3-3.1-1.2-3.8-2.9c-7.6-20.5-6.2-40,7.7-57.4
	c12.4-15.5,29.5-23.3,48.4-27.7c4.6-1.1,9.1-2.4,14-2.4c0-0.5-0.1-1.1-0.1-1.6c-6.1,0-12.3-0.6-18.3,0.1c-14.8,1.7-29.2,5.2-41.1,15
	c-19.4,16-27.4,36.5-24,61.5c0.3,2,0.5,4,1,5.9c2.1,7.4,2.2,7.7-5.6,8.3c-27.1,1.9-47.1,15.6-62.2,37.4c-2.4,3.5-4.2,4-7.9,2
	c-10.3-5.4-10.2-5.2-7.5-16.6c2.7-11.1,5-22.3,7.4-33.5c0.7-3.4,2-5.1,5.7-6.4c19.6-6.9,37.4-17.2,53.1-30.9
	c7.2-6.2,13.9-12.8,19.3-20.7c1.6-3.8,4.9-6.5,6.9-10c0.7-0.6,0.8-1.7,1.8-2.1c-1,0.2-1.1,1.3-1.7,1.9c-2.6,3.1-4.3,7.1-8.1,9.1
	c-10.6,10.7-22.1,20.2-35.1,27.7c-19.7,11.4-40.5,19.9-63.4,22.5c-8,0.9-15.8,1.2-23.6-1.1c-13-3.7-14.8-11.2-11.9-22.6
	c3-12,10.7-21.7,17.8-31.5c3-4.2,5.5-9.1,10.9-11.7c-12.1,1.3-23.7,2.7-35.3,3.9c-10.1,1-20.1,2.4-30.2,2.6
	c-18,0.4-35.9,1.9-53.9,1.1c-27.9-1.3-55.6-3.6-82.4-12.2c-9.2-3-18-7.1-25.8-12.8s-7.8-14.4,0.2-19.8c12.3-8.3,26.2-12.8,40.6-16
	c17.2-3.8,34.4-6.9,51.9-8.8c15.6-1.7,31.3-3.4,47-4.3c21.5-1.2,42.9-2.9,65.7-4.4c-22.5-3.4-43.7-7-64.7-11.5
	c-25.8-5.6-51.5-11.8-75.3-23.9c-7.2-3.7-14.1-8-20.8-15.3c16.6,3.8,32,3.7,47.4,2.2c2.6-0.2,3.6,2.2,4.9,3.6
	c7.7,8.2,16.7,14,27.8,16.5c4.1,0.9,8.2,1,12.3,0c5.2-1.3,8.8-4.4,10.7-9.5c2.1-5.3,0.9-8.9-4.1-11.7c-3-1.7-6.4-2.8-9.6-4
	c-1.7-0.6-3.6-1-4.3-3c0.4-1.8,1.9-2.2,3.3-2.7c19.8-7.2,38.4-16.9,55.6-29.1c3.2-2.3,6.5-2.7,10.4-2.1c42,7,82,20.4,120.9,37.5
	c6.7,3,13.3,6.2,19.6,9.8c2.5,1.3,5,2.7,7.4,4.2c0.7,0.5,1.7,0.8,2.6,1.9c-0.7-1.1-1.5-1.2-2.1-1.7c-2.4-1.4-4.8-2.8-7.3-4.1
	c-19.5-10.7-38.9-21.8-59.6-30.3c-23-9.4-46.6-17-71-21.8c-0.3-0.1-0.7-0.1-1-0.1c-1.8-0.3-4-0.4-4.6-2.4c-0.7-2.1,1.3-3.2,2.6-4.4
	c1.7-1.4,3.3-2.8,4.9-4.2c23.8-20.3,43.1-44.3,58.7-71.3c0.9-1.6,2-3.1,3.1-4.5c0.8-1.4,1.8-2.6,2.8-3.9c-1,1.1-1.7,2.3-2.6,3.4
	c-8.2,11.8-17.5,22.6-27.1,33.2c-7.5,8.3-15.2,16.3-23.2,24.1c-21.5,20.9-45.1,39-72.3,51.9c-10.8,4.7-21.8,9.7-33.8,11.5
	c-4.5-1.9-8.7-4-9.3-9.7c-0.6-3.6,2.2-6.1,2.4-9.3c2.5-0.4,2.4,3.6,4.5,2.4c1.8-1.1,1.5-3.5,1.5-5.6c-0.1-6.5-4.7-11-13.2-12.4
	c-4.8-0.8-9.5,0-14.8,1.9c4.5,1.6,8.2,3,11.9,4.4c2,0.7,2.4,1.9,2.2,4.2c-1.6,18.4-17.6,31.4-36.3,29.3c-11.1-1.2-22-2.7-32.7-5.9
	c-11.2-3.3-21.8-7.9-30.7-15.8c-10.8-9.6-6.4-17.2,1.7-24.5c2.4-2.1,4.8-4.1,6.5-6.7c5.2-7.8,4.6-16.9-2-23.7
	c-8.3-8.4-18-15.2-26.6-23.3c-13.3-12.4-26.2-25.1-38.2-38.7c-15.9-18.3-29.1-38.4-39.1-60.6C290,407.1,283.4,386.4,281.9,364.4z"/>
<path class="st8" d="M524.2,111.4c-12.6,7.7-25.4,15.2-36.9,24.4c-14.9,11.8-28.4,24.9-40.7,39.4c-13.8,16.2-25.4,33.7-35,52.5
	c-13.6,26.5-21.6,54.9-27.4,84c-4.4,22.1-13.2,42.5-24.5,61.8c-4.4,7.4-9.1,14.6-14,22.6C328.8,322.4,321,248.6,327,173.6
	c-3.4,11.6-5.3,23.4-6.8,35.2c-2.9,21.9-4.6,44.1-2.7,66.1c1,11.5-3.2,19.9-8.1,28.8c-9.1,16.6-19,32.8-30.5,47.9
	c-16,21-33.5,40.3-56.1,54.7c-19.1,12.2-39.7,18.8-63.5,18.1c11.3-6.1,21.9-11.7,31.4-19c16.8-12.9,29.6-29,39.5-47.5
	c11.1-20.7,19.6-42.5,27.1-64.8c8.9-26.3,17.4-52.7,27.8-78.4c11.3-27.9,25.8-54,45.3-77c27-31.8,60.5-54.5,99.1-70.2
	c27.8-11.4,56.6-18.8,86.1-24.3c1.6-0.3,2.9-0.3,4.3,0.4c-0.3,5.3-0.9,10.5-0.9,15.8c0,16.2,1.5,32.3,4.7,48.2
	C524.1,108.7,524.1,110.1,524.2,111.4z"/>
<path class="st8" d="M873,720.4c26.9-13.1,54.8-23.1,84.4-27.7c17.5-2.7,35.2-2.7,52.3,2.9c10.6,3.5,20.3,9,28.7,16.6
	c13.1,11.9,23.7,26,33.8,40.5c12.5,18,24.8,36.2,40.9,51.3c19.1,18,41.7,28.4,67.6,32.5c9.9,1.6,19.8,1.9,29.8,1.9
	c20.5,0,38.7-6.9,55.4-18.4c16-10.9,32.5-20.8,51.8-25c6.8-1.5,13.7-2.6,20.5-3.6c3.6-0.5,7.3-0.2,10.7,1.4
	c10.4,4.8,20.7,9.9,30.5,15.8c0.7,0.4,1.2,1.1,2.1,1.9c-1.9,1.2-3.7,0.8-5.3,0.7c-13-0.2-25.8,0.1-38.5,3.6
	c-16.6,4.5-30.7,13.3-43.7,24c-15.1,12.5-29.7,25.7-47.6,34.3c-17.1,8.2-35.1,12.6-53.8,15.4c-10.6,1.5-21.2,1.5-31.8,1.9
	c-24.1,0.8-46.6-5-68.7-14c-26.9-10.9-50.5-27.3-74.6-43.1c-19.3-12.7-38.6-25.5-59.3-35.8c-16.3-8.1-33.6-13.4-52.1-13.2
	c-3.4-13.2-8.5-25.8-14.9-37.9C886.1,737.1,879.1,729.1,873,720.4z"/>
<path class="st8" d="M907.2,791.3c21.7-0.4,40.8,7.9,59.3,18.1c29.9,16.5,56.9,37.4,86.3,54.6c26.3,15.4,53.8,27.6,84.1,32
	c13.5,1.9,27.1,1.7,40.7,0.6c13.3-1,26.4-2.8,39.3-5.9c25.1-5.9,47-18,66.6-34.5c11.4-9.6,22.4-19.7,35.7-26.9
	c11.4-6.2,23.6-9.9,36.4-10.9c9.7-0.7,19.4-1.4,29.3-0.5c6.5,0.6,11.6,2.4,16.6,6.4c6.9,5.6,14,11,21.1,17.6
	c-12.5-1.5-23.7-5.6-35.3-7.8c-12.5-2.3-24.2,0.1-35.5,4.7c-15.6,6.4-28.6,16.8-40.5,28.4c-9.5,9.3-18.8,18.9-29.4,26.9
	c-20,14.9-42.7,24-66.8,30.2c-31.1,8-62.7,9.3-94.5,7.7c-35.4-1.7-70.1-8.1-103.7-19.8c-22.1-7.7-42.3-18.4-59.8-34
	c-3-2.7-6-5.6-10.6-7.7c9.4,16,22.3,28.8,30.5,45.8c-17-2.5-31.3-9-44.9-17c-3.1-1.8-5.8-4.5-9.6-5c-10.3-12.4-22.5-22.6-35.8-31.6
	c-2.4-1.6-2.6-2.5-0.4-4.6C905.8,839.7,910.2,816.6,907.2,791.3z"/>
<path class="st8" d="M861.9,708.5c10.4-9.9,22.1-18,34.5-25.2c16.4-9.5,33.5-17.8,51.7-23.5c15.4-4.8,31.1-8,47.1-9.6
	c29.5-3,57.6,1.8,84.5,13.7c16,7.1,30.5,16.7,43.8,28.2c18.2,15.8,33,34.5,46.5,54.3c0.8,1.2,1.6,2.5,2.4,3.8
	c0.4,0.7,0.7,1.5,1.7,3.6c-11-5.5-21-10.5-31.8-15.8c2,5.7,5.8,9.1,8.6,13.2c8.4,11.9,16.7,24,27.5,34c9.5,8.8,20.3,15.7,33,18.9
	c17.1,4.3,33.5,1.5,48.3-7.5c16.8-10.2,34.6-15,54.2-13.3c0.7,0.1,1.4,0,2,0.2c3.3,1.1,6.9,0.6,10.4,2.4c-6.4,1.5-12.5,2.8-18.5,4.5
	c-15.6,4.5-29.1,13-42.4,21.9c-13.1,8.8-26.8,16-42.6,18.5c-10.7,1.7-21.5,1.3-32.2,0.2c-12-1.2-23.9-3.4-35.3-8
	c-12.9-5.2-24.7-12.2-35-21.6c-16.7-15.3-29.5-33.7-42.5-52c-10-14.1-19.7-28.5-32.7-40.1c-14.4-12.9-31-21.4-50.5-24
	c-24.3-3.3-47.6,1.3-70.6,7.9c-17.3,5-33.8,11.9-50.3,19.2c-1.8,0.8-3.4,2-5.1,3C866.5,713.1,864.2,710.8,861.9,708.5z"/>
<path class="st7" d="M614,756.4c-6.7,6.5-12.4,13.5-18.1,20.6c-5.4,6.8-9.7,14.2-11.8,22.8c-2.6,11.1,1.9,21.1,12.2,26.1
	c8.4,4.1,17.6,4.7,26.8,4.2c4.6-0.3,9.2-0.9,13.8-1.8c3.6-0.7,3.5,1,2.9,3.5c-3.7,15.7-7,31.4-11.1,47
	c-5.4,20.4-10.7,40.9-20.6,59.7c-3.6,6.9-5.8,15.2-14.8,17.7c-6.9,1.9-13.9,3.3-20.9,4.2c-21,2.9-42,3.6-63.2,3
	c-12.7-0.4-25.1-2.5-37.1-6.5c-1.9-0.6-3.6-1.6-5.3-2.7c-3.7-2.3-4.6-5.3-2.6-9.3c3.4-6.9,7.3-13.5,11.5-19.9
	c25.6-39.1,50.5-78.7,70.8-120.9c5-10.3,9.5-20.9,13.7-31.5c1.8-4.6,3.9-6.9,9.4-7.6c14.3-1.7,28.5-4.6,42.4-8.5
	C612.7,756.4,613.3,756.4,614,756.4z"/>
<path class="st9" d="M445,911.4c-11.5-0.2-22.7-2-33.8-5.2c-0.6-0.2-1.2-0.5-1.9-0.7c-10.3-4.3-11.4-7.9-5.6-17.3
	c13.7-22,27.4-43.9,41-66c10.8-17.5,21-35.4,30.3-53.8c16.9,1.8,33.9,0.8,50.8,1c3.8,0.1,7.6-0.2,11.4-0.8c6.6-1.1,11.8,5.8,9.2,12
	c-8.2,19.1-17.5,37.6-27.6,55.8c-13.1,23.5-27.8,46-41.6,69c-2.6,4.2-5.3,6.5-10.7,6.1C459.3,910.9,452.2,911.4,445,911.4z"/>
<path class="st8" d="M763,288.5c-0.8,16.2-3,32.2-4.8,48.2c-2.3,19.9-6.2,39.4-11.3,58.8c-2.6,9.9-5.1,19.8-9.9,29
	c0.1-18.3-0.4-36.6-3.2-54.6c-3.8-24.2-4-49-11.5-72.6c-9.2-29.1-24.4-54.5-46.1-76c-2-1.9-3.2-3.5-2.4-6.8
	c6.5-26.1,4.5-52-3.3-77.5c-2.1-6.8-4.5-13.6-6.7-20.3c11.1,8.3,20.2,18.6,29.5,28.8c13.5,14.7,25.6,30.4,36.2,47.3
	c5.2,8.3,10,16.8,15,25.2c3.9,6.4,5.5,13.4,5.4,20.9c0,1.4-0.5,3.1,1.5,4.3c5.7-16.2,5.8-32.8,5.4-49.5c-0.4-1,0.1-1.2,1-0.9
	c1.1,8.9,3.8,17.6,4.5,26.6c0.2,2.8,0.3,5.6,0.5,8.3c1.2,2.2-0.3,4.8,0.9,7c0,15.3,0,30.6,0,45.9C762.7,283,764.3,285.9,763,288.5z"
	/>
<path class="st8" d="M737,439.4c8.8-13.4,13.1-28.6,16.9-43.9c5.6-22.1,9.7-44.6,12.2-67.3c1.8-16.3,3.1-32.6,4.1-49
	c0.7-11.3,0.9-22.6,0.6-33.9c-0.3-11.1-0.6-22.2-2.7-33.1c-0.2-1.2,0-2.6,0-5.2c4.9,8.8,7.5,17.2,9.7,25.6
	c5.2,20,9.3,40.3,10.4,61.1c0.6,11.6,2,23.2,1.7,34.7c-1,39.7-5,79-18,116.9c-5.7,16.7-12.8,32.8-23.8,46.9
	c-2.7,3.4-5.6,6.5-9.1,9.2c-1.9-6.3-1.4-12.8-1.7-19.2C736.6,468.1,737,453.7,737,439.4z"/>
<path class="st10" d="M501.7,611.5c2.3,3.9,5.3,6.9,9.3,9c4.6,1.3,9.3,2.6,13.1,5.8c4.9,2,10,3.7,14.7,6.1c5.8,2.9,6.9,6.9,4.3,12.9
	c-4,9.3-12.7,13.2-24.1,10.6c-13.7-3.1-24.5-10.7-33.1-21.6c-1.4-2.3-1.7-3.9,1.1-6c5.2-3.8,9.6-8.6,12.3-14.6
	C499.9,612.7,500.3,611.5,501.7,611.5z"/>
<path class="st11" d="M559.9,681.4c-9.9,0-19.9-0.1-29.8,0c-2.6,0-4-1.3-3.7-3.5c0.3-2.6,2.5-1.2,4-1c9.8,1.3,19.6,2.6,29.4,3.9
	C559.8,681,559.8,681.2,559.9,681.4z"/>
<path class="st12" d="M511.9,680.3c0.4-1.6,0.8-3.3,1.2-4.9c2.4-1.3,3,0.3,2.9,2.1c-0.1,1.5,1.8,3.7-0.9,4.6
	C513.6,682.7,512.2,682.3,511.9,680.3z"/>
<path class="st13" d="M735,761.4c-1.3,4-4.2,7-7,10c-0.4-0.4-0.7-0.7-1.1-1.1C729.7,767.3,731.8,763.9,735,761.4L735,761.4z"/>
<path class="st14" d="M850,877.4c-1.8,1.4-4,1.2-6.1,1.7c1.1-1.4,2.1-2.7,4-2.7C848.4,877.2,849.2,877.3,850,877.4z"/>
<path class="st15" d="M533.1,138.4c1.7,2.1,0.7,4.6,1,7.7c-1.4-1.8-1.9-3.1-2-4.7C533.3,140.7,533,139.5,533.1,138.4z"/>
<path class="st8" d="M62.6,279.4c2.5,7.8,4.3,15.1,7.6,21.8c5.5,11.1,12.6,20.8,23.8,26.7c15.3,8,32.8,3.3,43.9-11
	c12.4-15.8,17.9-34.3,22-53.4c5.7-26.3,13.5-51.8,26.4-75.5c7.3-13.5,16.5-25.6,26.6-37.2c16.3-18.7,35.7-33.4,57.4-44.8
	c18-9.4,36.8-17,57.2-19.6c3-0.4,5.9-0.8,8.8-1.3c0.3,0,0.5-0.4,1.2-1c-8.6-5.4-17.1-10.8-25.5-16.1c-11-6.9-21.9-13.8-32.9-20.8
	c-1.1-0.7-2.9-1-2.7-2.6c0.1-1.7,2.1-1.5,3.2-1.8c35.8-8.7,70.9-19.9,107.1-27c16.5-3.3,33.2-2.5,49.3,2
	c21.5,6.1,42.7,13.6,65.2,20.9c-11,2.7-20.8,5-30.5,7.6c-19.8,5.3-38.9,12.4-57.5,20.9c-21.7,10-41.9,22.5-60.1,37.9
	c-13.1,11.2-24.8,23.7-35.1,37.5c-19.8,26.5-34,55.8-45.4,86.7c-11.6,31.3-21,63.4-33.4,94.5c-10.5,26.4-23.8,50.9-45.2,70.3
	c-13.3,12.1-28.4,21.3-45.7,26.8c-5.7,1.8-10.8-1.3-15.7-3.2c-19.4-7.5-35.9-19.4-50.3-34.3c-20.6-21.3-29.9-46.8-27.1-76.3
	C56.1,297.7,58.4,288.7,62.6,279.4z"/>
<path class="st6" d="M763,288.5c0.3-2.7-0.9-5.5,0.9-8C763.6,283.1,765,286,763,288.5z"/>
<path class="st6" d="M764,234.5c-1.8-2.2-0.6-4.7-0.9-7C764.9,229.6,763.7,232.2,764,234.5z"/>
<path class="st6" d="M758,192.6c-0.3,0.3-0.6,0.6-1,0.9c-1-0.9-1.4-1.9-0.5-3.1C757,191.1,757.5,191.8,758,192.6z"/>
<path class="st16" d="M499.9,543.2c-24.4-1.8-44.6-12.8-63-28c-7-7.1-13.5-14.6-18.8-23.2c-11.8-19.2-17.7-40-17.4-62.6
	c0.2-23.8,6.7-45.7,20.3-65.2c14.7-21,34.5-34.4,60-38.6c21.3-3.5,41.3,1.3,60.5,10.3c2.2,1.1,4.4,2.2,6.7,3.2s5.2,1.7,6.2,4.6
	c10.4,6.1,18.1,15.1,24.6,24.9c25.5,38.5,29.8,79,10.8,121.5c-0.9,1.1-1.9,1-3,0.3c-2.3-4.9,1.2-9.3,1.1-14c0.6-2.4,0.8-4.9,1.2-7.3
	c0.9-4.6,0.9-9.2,0-13.7c-0.4-7.2-1.9-14.3-3.8-21.3c-4.2-14.6-11.6-27.4-21.5-38.8c-2-2.1-4-4.4-6.4-6.1c-3-2.4-5.7-5.1-8.9-7.2
	c-2.5-1.9-5.1-3.6-8.2-4.6c-3.8-1.3-6.8-4.3-10.9-5.2c-3.8-1.2-7.5-2.5-11.5-2.7c-22.9-5.1-42.4,1.8-59.6,16.8
	c-3.8,3.2-6.9,7-9.6,11.2c-2.2,3-4.2,6.1-5.9,9.4c-2,4.1-3.9,8.3-5,12.8c-1.8,5.4-3.1,10.9-3.5,16.6c-0.1,0.8-0.2,1.6-0.4,2.4
	c-1.3,8.7-0.2,17.2,1.1,25.8c0.5,3.3,1.2,6.7,2,10c0.6,2.1,1.3,4.2,2,6.3c0.8,2.7,2.1,5.2,3.1,7.8c1.2,2.7,2.6,5.3,3.9,8
	c1.5,3.3,3.7,6.1,5.7,9c1.9,2.7,4.1,5.3,6.2,7.9c2.2,3,5,5.5,7.7,8c2.7,1.9,5,4.4,7.9,6c2.7,1.8,5.2,3.6,8.1,5.1
	c6,3.8,13,5.2,19.3,8.2C501.7,542.2,501,542.9,499.9,543.2z"/>
<path d="M554.4,343.8c-20.6-11.2-41.9-19.4-66-17.6c-26.1,2-47.1,13.8-62.9,34.2c-34.6,44.5-31.1,107.4,7.8,149.7
	c1.4,1.5,3.7,2.4,3.5,5c-35.2-25.5-52.6-72.7-42.3-115.2c8.1-33.5,26.3-59.4,57.6-75c10.6-5.3,22-7.6,33.8-7.6c4.2,0,5.1-1.5,5-5.2
	c-0.2-8.1-2.1-15.9-4.6-23.6c2.2-0.5,2.7,1.2,3.6,2.3c6,7.1,10.5,15,11.3,24.5c0.2,2.2,1.1,3.1,3.2,3.5c3.3,0.6,6.7,1.2,9.6,2.6
	c4.4,2.1,6.4,0.4,8.4-3.4c5-9.6,9.6-19.2,9.3-31.8c3,4.5,3.6,8.2,4.1,11.9c1.3,9.5-0.2,18.6-3.2,27.5c-0.8,2.5-0.5,3.7,1.8,4.6
	c0.5,0.2,0.9,0.5,1.3,0.7c4.6,1.5,7.5,7.3,13.1,6.1c10.2-2.1,20-5.5,26.6-14.4c1.5-2,3-4,4.5-6.1
	C582.3,328.6,570.1,341.3,554.4,343.8z"/>
<path class="st1" d="M524.1,626.3c-4.7-1.3-9.1-2.9-13.1-5.8c32.8-8.7,61.1-25.7,86.8-47.4c25.9-21.9,48.5-46.8,69.2-73.7
	c0.9-0.2,1.3,0,1.1,1c-9.1,17.2-20,33.2-32.7,48c-10.7,12.5-22.4,24-35.3,34.3c-0.6,0.5-1.1,1.2-2.3,2.5
	c49.7,9.1,94.9,27.9,137.1,54.1c0.2,0.9,0,1.4-1,1c-15.2-7-30.4-14.2-46.1-20.1c-31.2-11.8-63-21.6-96.1-26.9
	c-2.3-0.4-4.5-0.7-6.6,0.9C566.4,607.9,545.8,618.1,524.1,626.3z"/>
<path class="st1" d="M606.3,70.4c20.7,26.1,31,73.2,14,111C621,143.7,616.7,106.7,606.3,70.4z"/>
<path class="st1" d="M586.7,490c1,0.1,2,0.1,3.1,0.2c1.3,0.1,2.6,0.3,3.9,0.4c-38.1,8-73,21.1-94.6,56.9c0.2-1.4,0.5-2.8,0.7-4.2
	c0.3-0.6,0.6-1.1,0.9-1.7c0.4-5.7,4.1-10,6.5-14.8c15.5-23.8,37.6-36.2,65.9-37.9C577.8,488.1,582.5,486.8,586.7,490z"/>
<path class="st17" d="M431.4,594.5c6.3-3.9,9.1-9.9,11.2-17.8c2.4,5.5,6.1,10,3,14.8C442.6,596.4,436.9,595.5,431.4,594.5z"/>
<path class="st18" d="M733.9,640.4c0.3-0.3,0.7-0.7,1-1c2.3,1.3,4.6,2.7,7,4c0.3,0.9,0.1,1.4-1,1
	C738.6,643.1,736.3,641.8,733.9,640.4z"/>
<path class="st19" d="M668.1,500.5c-0.4-0.3-0.7-0.7-1.1-1c1.3-1.8,2.7-3.6,4.8-6.6C671.1,496.7,670.2,498.9,668.1,500.5z"/>
<path class="st20" d="M741,644.4c0.3-0.3,0.6-0.7,1-1c1.5,1,3,2,5.5,3.7C744.1,646.8,742.5,645.7,741,644.4z"/>
<path class="st21" d="M735,761.3c0.1-2.1,1.7-3.2,3.2-5.2C738.2,759.2,736.7,760.4,735,761.3C735,761.4,735,761.3,735,761.3z"/>
<path class="st22" d="M564.1,394.4c10.8,11.1,18,24.1,22,39c0.2,0.5,0.3,1.1-0.1,1.4c-4.8,4.1-9,8.9-15.2,11.1
	c-0.3-0.1-0.7-0.2-0.9-0.5c-3.7-7.7-7.5-15.4-12.4-22.4c-0.4-0.5-0.2-1.3-0.2-1.9c1.6-6.9,2.8-13.9,4.3-20.9
	C562,398.1,562.2,395.9,564.1,394.4z"/>
<path class="st23" d="M447.6,397.3c2.5-4.3,5.7-7.8,9.4-11c17.2-4.5,34.2-9.3,51.1-15c3.3-1.1,6.9-1.1,10-2.9c4.3,0,8.2,1.5,12,3.1
	c2.6,3.3-0.9,3.5-2.4,4c-6.8,2.1-13.7,3.8-20.3,6.2c-2,0.7-4,1.6-6.1,1.9c-10.9-0.9-20.6,2.2-29.3,8.8c-1.1,0.8-2.3,1.4-3.6,1.6
	c-5.1,0.3-9.7,2.9-14.7,3.7C451.5,398,449.4,399.2,447.6,397.3z"/>
<path class="st24" d="M518,368.4c-2.9,4.3-8,3.3-12.1,4.9c-11.3,4.4-23.1,6.8-34.7,10.4c-3.3,1-6.7,1.7-9.9,3
	c-1.6,0.6-3.2,1.3-4.5-0.5c15.2-14.8,33.4-21,54.4-19.1C513.6,367.4,515.8,368,518,368.4z"/>
<path class="st25" d="M549,381.6c3.4,1.8,6.4,4.3,9,7.1c0,2.9-2.4,3.2-4.4,3.9c-5.8,2-11.7,4-17.6,5.5c-2.4,0.6-4.7,1.6-6.9,2.8
	c-4.7-0.2-9.2-1.8-13.9-2.5c-1.9-0.9-2.5-2.5-2.4-4.4c5.1-3.7,11.4-3.8,17.1-6C536,385.4,542.9,384.6,549,381.6z"/>
<path class="st26" d="M571,445.4c5.1-4,10.1-8,15.2-12c2.8,7,4,14.3,4.1,21.9c-0.2,0.2-0.3,0.4-0.5,0.7c-5.2,1.9-10.2,4.8-16.1,3.6
	C571.8,455,569.6,450.6,571,445.4z"/>
<path class="st27" d="M529.1,400.2c3-3.4,7.5-3.4,11.4-4.8c5.9-2.1,12.3-2.9,17.5-6.7c2,1.9,4.1,3.8,6.1,5.7c-0.4,2-0.8,4-1.2,6
	c-6.8,3-14.2,4.3-21.2,6.6C537,405.7,532.6,403.7,529.1,400.2z"/>
<path class="st28" d="M549,381.6c-0.2,2.2-2,2.7-3.5,3c-10.1,2.3-19.7,6-29.7,8.7c-0.8,0.2-1.7,0.1-2.5,0.1c-2.8-1-4.2-3.1-4.6-6
	c1.3-1.9,3.3-2.8,5.4-3.3c9.1-2,17.8-5.4,26.8-7.6C544,377.7,546.7,379.4,549,381.6z"/>
<path class="st29" d="M436.2,475.4c-1.3-3.2-2.2-6.5-2.2-10c2-3.2,5.6-3.3,8.7-4.1c3.9-1,7.7-2,11.1-4.1c3.5,0.2,6.2,2.2,8.8,4.4
	c0.9,2.4,1.8,4.9,0.9,7.5c-8.6,0-16.2,4.4-24.5,6C438.1,475.2,437.2,475.8,436.2,475.4z"/>
<path class="st30" d="M451.1,506.4c-2.5-2.7-4.4-5.7-5.8-9c0.9-1.6,2.5-2.2,4-2.6c6.5-1.8,13-3.6,19.6-5.1c3.5,2.4,5.6,5.5,5.4,10
	C466.8,502.8,459.3,505.9,451.1,506.4z"/>
<path class="st31" d="M454,457.7c-2,3.8-6.1,3.6-9.3,4.4c-3.6,0.9-7.2,2-10.7,3.3c-2.1-9-2.8-18.2-1.1-27.4c2.4,2.3,1.5,5.3,1.5,8
	c0,3.6,1.2,4.8,4.8,3.9c2.8-0.7,5.4-1.6,7.5-3.6c1.2-0.6,2,0.2,2.4,1.1C450.4,451.1,453.4,453.8,454,457.7z"/>
<path class="st32" d="M541,376.6c-3,2.9-7.1,3.1-10.7,4.3c-6.9,2.4-14.3,3.5-21,6.5c-3.7-0.1-6.3-2-8.4-4.9c8.9-3,17.7-6.1,26.9-8.2
	c1.2-0.3,3.4-0.3,2.3-2.7C534.2,372.1,537.3,375.1,541,376.6z"/>
<path class="st33" d="M451.1,506.4c7.5-2.8,15.1-5.3,22.9-7c3.7,1.6,6,4.2,6.2,8.3c-7.2,3.6-14.7,6.3-22.9,6.6
	C454.9,512,452.6,509.5,451.1,506.4z"/>
<path class="st34" d="M457.3,514.4c7.5-2.3,15-4.6,22.5-7c4.1,1.2,6.5,4.1,7.5,8.2c-2.2,3-5.9,2.5-9,3.5c-4.3,1.3-8.4,3.9-13.2,3.3
	C462.2,520,459.5,517.5,457.3,514.4z"/>
<path class="st35" d="M436.2,475.4c7.6-3.4,15.7-5.2,23.5-7.9c1.6-0.5,2.2,1.1,3.1,1.9c1.7,1.2,2.1,3,1.7,4.9
	c-1,1.9-2.8,2.7-4.7,3.3c-5.3,1.7-10.7,3.4-16.1,4.8c-2,0.5-4.2,1.6-5.7-1.1C437.1,479.5,436.4,477.5,436.2,475.4z"/>
<path class="st36" d="M469.3,490.3c-7.7,3.3-16.1,4.1-24,7c-1.8-2.4-3-5.2-4-8c7.6-4.4,16.1-6.1,24.6-7.3
	C468.5,484.2,470.2,486.7,469.3,490.3z"/>
<path class="st37" d="M433.1,436.4c0.2-6,1.4-11.8,3.8-17.3c3.5,0.7,6.7-1.2,10-1.5c1.5-0.1,3.1-1.4,4.6,0.1
	c-0.1,4.7-2.5,8.8-3.4,13.3C445.5,436.2,437.5,439.2,433.1,436.4z"/>
<path class="st38" d="M433.1,436.4c4.7,0.8,11.9-1.8,13.8-5c1.5,4.9,1.9,9.9,0.3,14.9c0.1,1.9-0.7,2.9-2.6,3.5
	c-2.5,0.8-5.1,1.2-7.6,2c-3.7,1.2-3.9-0.6-3.9-3.3c0-3.5-0.1-6.9-0.2-10.4C432.9,437.5,433,437,433.1,436.4z"/>
<path class="st39" d="M466,482.4c-8.2,2.3-16.5,4.7-24.7,7c-1.6-2.4-2.5-5.2-3.1-8c0.8,0.2,1.7,0.8,2.3,0.6c7.8-2.4,16-3.9,23.4-7.6
	C466.4,476.6,467.8,479.1,466,482.4z"/>
<path class="st40" d="M507.9,527.5c-2.3,4.7-4.7,9.3-7,14c-7-1.8-13.8-3.9-19.9-8.1c4.7-3.7,10.8-3.6,16.1-5.8
	c2.1-0.9,4.4-1.3,6.6-2C505.4,525.5,506.9,525.8,507.9,527.5z"/>
<path class="st41" d="M465.1,522.4c7.4-2.4,14.9-4.7,22.3-7.1c3.7,0.9,7.3,2,7.6,6.7c-6.7,4.3-14.3,5.6-22.1,6.5
	C469.9,527,467.6,524.6,465.1,522.4z"/>
<path class="st42" d="M450.9,417.4c-3.8,1.1-7.7,2.2-11.5,3.3c-1.5,0.4-2-0.6-2.5-1.6c1-4.5,2.7-8.7,5.2-12.6
	c3.4-0.6,6.7-1.5,10-2.6c1.9-0.6,3.8-1,5.8,0.1c0.8,0.8,1,1.8,0.5,2.7C456.1,410.4,454.6,414.7,450.9,417.4z"/>
<path class="st43" d="M473,528.4c7.1-3.2,15.1-3.7,22.2-7.1c4.1-0.3,7,1.5,9,5c-7.4,3.4-15.3,5.2-23.2,7.1
	C477.9,532.4,475.4,530.6,473,528.4z"/>
<path class="st32" d="M458.1,404.4c-3.6-0.5-6.7,1.2-10,2.1c-2,0.6-4,1.7-6-0.1c1.1-3.5,3.2-6.4,5.5-9.2c5.5-0.3,10.6-2.2,15.8-3.8
	c1.5-0.4,3.3-2.2,4.8,0.3C465.8,398.3,462.9,402.3,458.1,404.4z"/>
<path class="st44" d="M586.7,490c-4.6-0.6-9.2-0.6-13.8-0.1c-1.2-3.6-0.5-6.9,1.6-10c4.7-1.9,9.1-4.7,14.5-3.4
	C589.4,481.1,587,485.4,586.7,490z"/>
<path class="st33" d="M589.1,476.4c-4.7,1.3-9.4,2.7-14,4c-1.4-1.3-1.2-3-0.9-4.6c1.7-7.8,7.1-11.5,16.3-11.1
	c0.1,1.6,0.4,3.2-0.2,4.8C589.8,471.8,590.2,474.2,589.1,476.4z"/>
<path class="st26" d="M590.2,469.4c-0.1-1.7-0.2-3.3-0.3-5c-1.9-3-1.9-5.9,0-8.9l0.3-0.2C591.5,460,591.6,464.7,590.2,469.4z"/>
<path d="M575.2,475.4c-0.1,1.7-0.1,3.4-0.2,5c-0.7,3.2-1.4,6.3-2.1,9.5c-16.1,1-30.8,6.2-44,15.4c-8.6,5.9-15.1,13.9-21.1,22.3
	c-1.2-0.4-2.4-0.8-3.7-1.2c-3-1.7-6-3.3-9-5c-2.6-2-5.2-4.1-7.8-6.1c-2.5-2.6-5.1-5.2-7.6-7.8c-1.4-3.1-3.7-5.5-5.8-8
	c-1-3.3-3-6.1-4.7-9.1c-1.1-2.6-2.2-5.3-3.3-7.9c0-2.8-1.4-5.3-2.1-8c-0.3-1.7-0.7-3.3-1-5c-0.2-2.6-0.5-5.2-0.7-7.8
	c0.4-0.6,1-1,1.7-0.9c15.6,0.5,26.6-7.9,36.2-18.8c8.5-9.8,12.9-21.5,14.6-34.3c0.4-3.4-2.1-6.9,0.4-10.1c4.9-0.1,9.5,1.5,14.1,2.8
	c4.3,2.1,8.6,4.3,12.9,6.4c6.9,3.2,12.4,8,16.1,14.8c5.1,7.6,9.5,15.5,12.9,24c1.1,4.6,2.2,9.3,3.3,13.9c2.2,2.8,2.7,6,1.7,9.3
	C575.2,470.8,576,473.2,575.2,475.4z"/>
<path class="st45" d="M558,421.4c-5.1-5.3-10.3-10.4-16.1-14.8c1.1-2.8,3.9-1.9,5.9-2.5c5-1.3,9.6-3.9,15-3.7
	C561.3,407.5,560.8,414.7,558,421.4z"/>
<path class="st16" d="M515,397.4c3,25.2-8.5,43.5-27.9,57.8c-7.3,5.3-15.7,7.9-24.9,6.4c-2.9-0.8-5.5-2.3-8.1-3.9
	c-3.4-3.2-5.2-7.3-6.9-11.4c-0.5-5-0.9-9.9-0.3-14.9c1.4-4.7,2.7-9.3,4.1-14c2.4-4.3,4.8-8.7,7.2-13c3.4-3.5,6.7-7.1,10.1-10.6
	c9.5-7.7,19.9-13.2,32.7-11.3c2.9,1.4,5.9,2.8,8.4,4.9c1.4,2,2.7,4,4.1,6C513.9,394.8,514.4,396.1,515,397.4z"/>
<path class="st30" d="M575.2,475.4c-0.3-5.4-0.6-10.7-1-16.1c5.2-1.3,10.5-2.5,15.7-3.8c0,3,0,5.9,0,8.9c-1.8,1.5-3.9,2.2-6.3,2.6
	C579,467.8,575.2,469.8,575.2,475.4z"/>
<path class="st0" d="M499,482.7c0.1,5.6-3.2,9.7-7.8,9.8c-5.6,0.2-10.8-6-10.7-12.8c0-5.6,3.4-9.6,8-9.6
	C493.9,470.1,498.9,476.1,499,482.7z"/>
<path class="st46" d="M532.6,451.6c-0.3,2.1-1.1,4-3.9,4c-3.1,0.1-6.4-3.2-6.4-6.5c0-2.7,1.3-4.5,4.2-4.6
	C529.4,444.5,532.7,448.2,532.6,451.6z"/>
</svg>
