<?xml version="1.0" standalone="no"?>
<!DOCTYPE svg PUBLIC "-//W3C//DTD SVG 20010904//EN"
 "http://www.w3.org/TR/2001/REC-SVG-20010904/DTD/svg10.dtd">
<svg version="1.0" xmlns="http://www.w3.org/2000/svg"
 width="1012.000000pt" height="1012.000000pt" viewBox="0 0 1012.000000 1012.000000"
 preserveAspectRatio="xMidYMid meet">
<metadata>
Created by potrace 1.14, written by Peter Selinger 2001-2017
</metadata>
<g transform="translate(0.000000,1012.000000) scale(0.100000,-0.100000)"
fill="#000000" stroke="none">
<path d="M4648 7973 c-107 -148 -188 -327 -188 -412 0 -43 4 -53 31 -75 25
-21 41 -26 84 -26 46 0 148 26 219 55 17 7 18 4 12 -31 -6 -32 -3 -45 14 -67
40 -51 148 -37 545 72 121 34 224 61 230 61 29 0 -39 -35 -185 -95 -208 -85
-256 -109 -276 -140 -35 -54 2 -87 139 -123 59 -15 107 -29 107 -32 0 -3 -51
-11 -112 -17 -130 -12 -183 -32 -211 -81 -18 -30 -18 -38 -7 -75 28 -95 217
-232 375 -272 70 -18 135 -20 135 -4 0 6 7 9 15 5 9 -3 15 0 15 10 0 8 -4 12
-10 9 -5 -3 -10 -1 -10 5 0 7 -7 10 -15 6 -8 -3 -15 -2 -15 3 0 5 -21 16 -47
26 -122 45 -234 107 -292 161 -34 31 -61 64 -61 75 0 32 63 40 375 49 165 5
313 13 328 19 21 8 27 17 27 41 0 44 -30 58 -187 86 -308 55 -413 77 -413 84
0 5 51 29 113 55 61 26 155 65 207 87 183 77 377 175 393 199 24 33 21 56 -9
76 -25 16 -32 16 -123 1 -53 -10 -211 -49 -351 -88 -347 -96 -546 -144 -566
-136 -15 6 -11 13 22 48 57 59 197 173 304 248 106 73 125 100 93 132 -30 29
-52 21 -168 -67 -196 -149 -493 -295 -600 -295 -32 0 -35 3 -35 28 0 37 87
215 156 319 46 70 53 86 44 103 -7 13 -21 20 -40 20 -22 0 -35 -10 -62 -47z"/>
<path d="M2564 7557 c-3 -9 1 -28 9 -44 13 -25 36 -95 43 -132 3 -15 -57 -81
-75 -81 -6 0 -11 -3 -11 -8 0 -4 -38 -48 -85 -97 -47 -50 -85 -93 -85 -97 0
-4 -26 -27 -57 -52 -32 -24 -84 -69 -117 -99 -68 -65 -116 -80 -165 -51 -40
24 -50 51 -46 125 4 81 40 162 87 197 18 13 25 52 10 52 -5 0 -26 -9 -48 -19
-41 -20 -61 -51 -127 -201 -40 -90 -68 -242 -69 -371 -1 -129 1 -136 36 -211
32 -68 33 -93 2 -114 -31 -19 -42 -65 -26 -107 37 -98 71 -170 91 -192 11 -11
30 -33 43 -50 13 -16 51 -46 85 -65 33 -19 61 -39 61 -44 0 -5 -10 -18 -23
-30 -31 -29 -26 -60 14 -96 44 -39 67 -44 136 -31 93 18 113 18 113 -3 0 -19
-74 -42 -177 -54 -7 -1 -10 -9 -7 -17 4 -8 2 -15 -4 -15 -19 0 -41 -104 -39
-188 1 -46 -1 -86 -4 -88 -11 -6 28 -119 56 -163 14 -22 25 -46 25 -53 1 -7
14 -29 30 -48 17 -19 30 -38 30 -42 0 -15 158 -163 191 -180 170 -86 355 -154
469 -173 19 -3 46 -7 60 -10 40 -7 141 -18 190 -20 40 -1 69 2 148 19 27 6 62
-24 62 -53 0 -10 6 -24 14 -30 8 -7 17 -24 21 -38 3 -15 15 -38 26 -51 10 -14
19 -29 19 -34 0 -6 14 -27 30 -48 17 -21 30 -42 30 -48 0 -5 8 -20 19 -33 10
-13 37 -61 60 -105 23 -45 55 -94 72 -110 16 -15 29 -34 29 -41 0 -7 5 -13 10
-13 7 0 7 -6 2 -17 -5 -10 -7 -24 -5 -30 3 -7 1 -13 -4 -13 -5 0 -24 -20 -41
-44 -30 -42 -103 -118 -171 -178 -43 -38 -92 -33 -262 28 -20 7 -70 11 -117
10 -66 -2 -88 -7 -112 -24 -16 -12 -32 -22 -36 -22 -3 0 -19 -9 -34 -20 -46
-33 -106 -132 -151 -247 -22 -59 -47 -122 -54 -138 -8 -17 -16 -42 -19 -55 -3
-14 -12 -59 -21 -100 -21 -93 -28 -175 -28 -311 0 -93 3 -112 27 -164 29 -65
42 -77 104 -106 32 -15 54 -19 83 -14 21 4 39 10 39 14 0 4 19 14 41 21 45 15
125 68 175 116 17 16 46 40 64 54 59 46 117 108 134 145 10 20 27 46 39 58 19
19 21 35 24 142 2 66 3 132 3 148 0 36 22 44 57 19 15 -10 44 -25 65 -31 48
-16 178 -17 206 -2 12 6 22 9 22 6 0 -4 13 3 29 14 35 25 47 26 55 6 6 -16
-30 -85 -45 -85 -5 0 -9 -9 -9 -19 0 -11 -8 -26 -18 -33 -10 -7 -43 -47 -75
-88 -31 -41 -65 -84 -76 -95 -10 -11 -26 -34 -34 -51 -9 -17 -35 -51 -59 -76
-24 -24 -56 -64 -73 -89 -16 -24 -40 -52 -51 -61 -12 -10 -48 -52 -80 -95 -32
-43 -88 -107 -125 -143 -61 -60 -118 -144 -105 -157 8 -8 -12 -42 -55 -93 -44
-53 -97 -148 -104 -187 -3 -16 -7 -38 -9 -50 -3 -13 -1 -25 4 -28 5 -3 7 -17
4 -30 -7 -37 33 -69 124 -98 42 -14 89 -28 103 -31 76 -17 326 -26 374 -13 11
3 34 8 50 12 17 4 66 18 111 31 85 26 82 22 123 114 25 55 33 65 92 112 25 20
52 52 58 70 26 68 55 128 62 128 11 0 117 132 184 230 32 47 71 101 87 120 15
19 48 62 73 95 25 33 61 80 80 105 59 76 197 224 266 286 13 12 65 64 116 116
l92 96 123 22 c68 12 138 29 157 36 18 8 40 14 48 14 14 0 43 -23 43 -34 0
-15 100 -126 114 -126 6 0 18 -10 26 -21 8 -12 49 -37 90 -57 90 -43 175 -50
227 -20 31 19 31 19 38 -3 4 -11 2 -26 -4 -32 -6 -6 -11 -26 -11 -44 0 -18 -6
-50 -14 -70 -8 -21 -17 -47 -22 -58 -4 -11 -8 -24 -10 -30 -2 -10 -33 -67 -95
-177 -41 -72 -67 -146 -108 -308 -29 -117 -29 -123 -18 -326 6 -99 52 -174
130 -210 36 -16 62 -22 87 -18 49 7 132 34 150 49 8 7 32 21 52 31 50 26 182
147 250 231 51 63 68 94 73 133 1 8 4 31 8 50 17 84 16 91 -12 135 -30 47 -33
97 -17 245 7 64 64 292 90 360 8 19 23 67 35 105 13 39 27 78 32 87 5 10 9 24
9 32 0 8 18 53 40 100 43 92 48 120 25 146 -26 29 -26 58 2 88 14 15 31 39 39
54 8 15 23 32 34 38 11 6 20 19 20 29 0 10 3 21 6 24 11 11 43 -12 42 -31 -1
-16 7 -73 17 -116 3 -12 7 -32 9 -46 2 -14 11 -61 21 -105 9 -44 18 -96 21
-115 11 -99 15 -122 24 -146 6 -14 10 -38 10 -53 0 -27 21 -73 69 -151 11 -19
26 -46 33 -60 40 -80 173 -227 274 -301 78 -57 211 -117 272 -122 45 -4 58 -1
80 18 37 31 99 123 108 160 4 17 10 32 13 35 4 3 12 28 18 55 6 28 18 75 27
105 10 30 20 66 23 80 10 44 12 229 3 235 -5 3 -7 12 -4 20 3 7 -6 33 -20 58
-14 24 -23 47 -19 50 3 4 1 7 -6 7 -7 0 -10 4 -6 9 7 12 -33 51 -52 51 -7 0
-13 4 -13 9 0 5 -15 14 -32 22 -18 7 -35 16 -38 20 -3 3 -21 14 -40 24 -42 22
-63 42 -51 49 5 3 38 -10 73 -30 130 -76 144 -82 193 -89 28 -5 61 -10 75 -13
38 -8 218 -7 275 2 28 4 66 9 85 12 52 7 128 36 150 56 17 16 49 23 91 19 9 0
33 -27 54 -58 45 -68 101 -125 146 -149 18 -9 40 -24 50 -33 45 -42 210 -67
324 -49 28 4 64 10 80 12 89 15 385 152 385 179 0 4 4 7 10 7 5 0 37 20 71 45
34 25 67 45 75 45 8 0 14 4 14 8 0 4 21 33 48 64 43 52 137 197 154 240 4 10
9 30 12 45 2 16 5 28 6 28 13 0 24 175 11 176 -6 1 -17 2 -23 3 -31 4 -113
-15 -137 -31 -32 -22 -88 -42 -96 -35 -11 11 -4 20 27 33 17 7 50 29 73 48 73
62 85 71 85 64 0 -12 170 161 194 197 12 19 39 60 59 90 21 30 37 60 37 66 0
6 14 53 30 105 28 85 35 142 30 239 -1 8 0 51 0 95 2 91 -7 215 -18 260 -24
93 -47 157 -64 175 -10 11 -17 20 -14 20 3 0 -11 23 -29 50 -46 68 -181 200
-205 200 -11 0 -28 -10 -40 -22 -21 -23 -21 -46 -4 -174 6 -48 -16 -190 -34
-219 -4 -5 -7 -12 -8 -15 -12 -63 -87 -193 -128 -222 -58 -42 -237 -129 -263
-129 -113 3 -180 21 -220 59 -34 32 -71 133 -78 218 -3 32 -8 82 -11 109 -3
28 -5 57 -6 65 -1 31 -30 137 -50 180 -50 107 -168 183 -328 211 -30 6 -66 12
-80 15 -14 2 -49 6 -78 7 -89 6 -90 32 -3 85 17 10 45 38 63 62 17 25 39 53
49 64 10 11 23 33 28 50 53 172 -25 344 -246 547 -28 26 -52 51 -54 56 -6 13
-109 88 -163 118 -25 14 -67 37 -93 52 -86 47 -100 53 -117 47 -27 -10 -18
-28 29 -58 25 -15 58 -45 73 -65 15 -20 30 -37 35 -39 4 -2 7 -8 7 -14 0 -5
27 -54 60 -109 33 -54 60 -103 60 -109 0 -6 6 -21 14 -33 39 -59 55 -222 29
-286 -28 -66 -149 -159 -228 -176 -17 -3 -68 -8 -115 -10 -84 -4 -137 3 -235
32 -27 8 -63 17 -80 19 -16 2 -64 15 -105 28 -41 14 -88 27 -105 30 -48 9 -76
15 -93 20 -9 3 -28 7 -42 10 -14 2 -38 10 -55 16 -16 7 -55 14 -85 16 -67 5
-94 9 -140 24 -33 10 -115 20 -185 22 -59 2 -189 -12 -198 -21 -5 -5 -15 -7
-22 -5 -20 8 -125 -25 -185 -59 -119 -66 -208 -151 -236 -223 -10 -27 -21 -51
-24 -54 -8 -7 -35 -56 -54 -100 -19 -44 -26 -79 -31 -159 -3 -37 -11 -71 -19
-80 -23 -25 -156 -17 -156 10 0 5 -6 9 -12 9 -7 0 -24 17 -38 37 -38 57 -222
223 -247 223 -3 0 -14 6 -22 14 -24 22 -73 26 -93 8 -10 -8 -18 -19 -18 -23 0
-5 -14 -38 -30 -74 -17 -36 -30 -71 -30 -78 0 -7 -14 -54 -30 -105 l-30 -93
21 -42 c16 -33 21 -66 24 -160 3 -65 7 -122 10 -127 7 -11 -103 -125 -155
-162 -39 -27 -77 -32 -71 -8 2 8 5 22 6 30 2 8 4 15 5 15 3 0 11 39 15 65 2
14 7 43 12 65 6 22 9 54 8 70 -3 50 -61 161 -97 186 -18 13 -40 32 -48 42 -8
11 -22 27 -30 36 -50 57 -72 135 -77 276 -2 55 -4 109 -5 120 0 11 3 34 6 50
11 47 36 257 31 264 -2 4 -6 31 -9 61 -4 30 -9 72 -12 92 -3 21 -5 40 -5 43 3
11 -53 101 -80 130 -15 17 -27 37 -26 45 5 29 40 135 49 146 9 12 14 31 23 97
4 22 10 49 14 61 13 33 3 191 -13 231 -8 19 -21 35 -28 36 -7 0 -22 2 -33 5
-73 16 -168 7 -235 -23 -8 -3 -17 -7 -20 -8 -68 -19 -137 -42 -182 -61 -32
-13 -58 -21 -58 -17 0 3 -6 1 -12 -4 -26 -21 -108 -36 -108 -21 0 5 -4 6 -10
3 -5 -3 -10 0 -10 8 0 53 -304 235 -498 297 -53 18 -119 41 -147 52 -27 11
-72 22 -100 24 -27 3 -72 11 -100 18 -27 8 -63 17 -80 19 -16 3 -37 8 -45 11
-28 10 -94 17 -194 22 -55 2 -101 6 -104 9 -3 2 -13 0 -23 -5 -9 -6 -27 -7
-38 -2 -19 7 -81 83 -81 101 0 5 -20 25 -45 46 -35 28 -46 33 -51 22z"/>
<path d="M668 7005 c-15 -34 5 -53 97 -90 125 -50 589 -282 609 -304 27 -30
12 -43 -86 -75 -236 -79 -508 -130 -773 -146 -224 -13 -392 -32 -422 -49 -30
-16 -35 -49 -11 -73 20 -20 28 -21 147 -14 126 6 322 27 436 46 69 11 418 13
518 1 37 -4 72 -12 78 -18 34 -34 -547 -311 -821 -392 -41 -13 -85 -29 -97
-37 -31 -20 -30 -61 1 -75 19 -9 45 -4 137 26 127 41 459 123 619 154 145 27
210 33 245 23 28 -8 30 -12 30 -53 -1 -57 -44 -150 -131 -283 -111 -168 -291
-379 -373 -437 -71 -49 -111 -91 -111 -114 0 -26 18 -45 43 -45 21 0 92 46
122 80 24 26 234 158 365 227 119 64 261 123 294 123 23 0 26 -4 26 -36 0 -95
-111 -339 -199 -439 -75 -85 -175 -230 -191 -279 -21 -64 27 -107 79 -69 40
29 122 143 190 263 45 79 73 117 108 144 93 72 109 40 125 -239 6 -116 15
-200 23 -215 l13 -25 11 26 c32 84 42 387 16 475 -19 65 -61 106 -109 106 -21
0 -36 5 -36 12 0 6 14 49 30 96 21 59 30 104 30 148 0 57 -3 67 -29 93 -54 53
-127 40 -338 -61 -68 -32 -123 -54 -123 -49 0 5 17 33 38 62 125 169 211 335
219 424 12 135 -71 183 -267 152 -39 -6 -77 -9 -86 -7 -8 2 27 27 80 57 53 30
114 71 135 91 90 82 52 157 -89 176 -28 4 -49 11 -47 17 2 6 37 20 78 32 105
32 149 52 187 88 56 54 38 119 -49 175 -116 77 -657 332 -702 332 -20 0 -31
-7 -39 -25z"/>
<path d="M5214 6662 c3 -5 1 -12 -6 -14 -26 -9 25 -60 144 -149 67 -49 132
-92 145 -95 29 -8 53 11 53 41 0 23 -18 38 -217 178 -51 36 -135 64 -119 39z"/>
<path d="M5175 6509 c-15 -24 32 -127 77 -169 35 -32 88 -21 88 18 0 15 -44
77 -94 130 -30 32 -59 41 -71 21z"/>
</g>
</svg>
